<svg xmlns="http://www.w3.org/2000/svg" width="17.067" height="15" viewBox="0 0 17.067 15">
  <g id="fax_1_" data-name="fax (1)" transform="translate(0 -31)">
    <path id="Path_3143" data-name="Path 3143" d="M15.567,37H13.033V33.5a2.5,2.5,0,0,0-2.5-2.5h-6a.5.5,0,0,0-.5.5V37H1.5A1.5,1.5,0,0,0,0,38.5v3A1.5,1.5,0,0,0,1.5,43H4.033v2.5a.5.5,0,0,0,.5.5h8a.5.5,0,0,0,.5-.5V43h2.533a1.5,1.5,0,0,0,1.5-1.5v-3A1.5,1.5,0,0,0,15.567,37Zm-3.619-4h-.914v-.914A1.507,1.507,0,0,1,11.947,33ZM5.033,32h5v1.5a.5.5,0,0,0,.5.5h1.5v3h-7Zm7,13h-7V42h7Zm4.033-3.5a.5.5,0,0,1-.5.5H13.033v-.5a.5.5,0,0,0-.5-.5h-8a.5.5,0,0,0-.5.5V42H1.5a.5.5,0,0,1-.5-.5v-3a.5.5,0,0,1,.5-.5H15.567a.5.5,0,0,1,.5.5Z"/>
    <circle id="Ellipse_111" data-name="Ellipse 111" cx="0.5" cy="0.5" r="0.5" transform="translate(12 39)"/>
    <circle id="Ellipse_112" data-name="Ellipse 112" cx="0.5" cy="0.5" r="0.5" transform="translate(10 39)"/>
    <path id="Path_3144" data-name="Path 3144" d="M185.5,391h-4a.5.5,0,0,0,0,1h4a.5.5,0,0,0,0-1Z" transform="translate(-174.967 -348)"/>
  </g>
</svg>
