<svg id="file_1_" data-name="file (1)" xmlns="http://www.w3.org/2000/svg" width="60" height="60" viewBox="0 0 60 60">
  <g id="Group_393" data-name="Group 393" transform="translate(21.094 10.664)">
    <g id="Group_392" data-name="Group 392">
      <path id="Path_3145" data-name="Path 3145" d="M195.82,91H181.758a1.758,1.758,0,0,0,0,3.516H195.82a1.758,1.758,0,0,0,0-3.516Z" transform="translate(-180 -91)"/>
    </g>
  </g>
  <g id="Group_395" data-name="Group 395" transform="translate(21.094 17.695)">
    <g id="Group_394" data-name="Group 394">
      <path id="Path_3146" data-name="Path 3146" d="M195.82,151H181.758a1.758,1.758,0,0,0,0,3.516H195.82a1.758,1.758,0,0,0,0-3.516Z" transform="translate(-180 -151)"/>
    </g>
  </g>
  <g id="Group_397" data-name="Group 397" transform="translate(7.031 24.727)">
    <g id="Group_396" data-name="Group 396">
      <path id="Path_3147" data-name="Path 3147" d="M89.883,211H61.758a1.758,1.758,0,0,0,0,3.516H89.883a1.758,1.758,0,0,0,0-3.516Z" transform="translate(-60 -211)"/>
    </g>
  </g>
  <g id="Group_399" data-name="Group 399" transform="translate(7.031 31.758)">
    <g id="Group_398" data-name="Group 398">
      <path id="Path_3148" data-name="Path 3148" d="M83.51,271H61.758a1.758,1.758,0,0,0,0,3.516H83.51a1.758,1.758,0,0,0,0-3.516Z" transform="translate(-60 -271)"/>
    </g>
  </g>
  <g id="Group_401" data-name="Group 401" transform="translate(0)">
    <g id="Group_400" data-name="Group 400">
      <path id="Path_3149" data-name="Path 3149" d="M45.82,31.758V5.273A5.369,5.369,0,0,0,40.43,0H15.82a1.774,1.774,0,0,0-1.248.52L.51,14.7A1.774,1.774,0,0,0,0,15.938V54.727A5.279,5.279,0,0,0,5.273,60H45.82a14.121,14.121,0,1,0,0-28.242ZM14.063,6.027V14.18H5.977ZM5.273,56.484a1.76,1.76,0,0,1-1.758-1.758V17.7h12.3a1.758,1.758,0,0,0,1.758-1.758V3.516H40.43A1.867,1.867,0,0,1,42.3,5.273V32.2a14.223,14.223,0,0,0-8.761,6.594H8.789a1.758,1.758,0,1,0,0,3.516h23.3a13.933,13.933,0,0,0-.449,3.516H8.789a1.758,1.758,0,1,0,0,3.516h23.3a14.24,14.24,0,0,0,4.439,7.148Zm40.547,0A10.807,10.807,0,0,1,35.156,45.82a10.665,10.665,0,0,1,21.328,0A10.807,10.807,0,0,1,45.82,56.484Z" transform="translate(0)"/>
    </g>
  </g>
  <g id="Group_403" data-name="Group 403" transform="translate(38.672 42.305)">
    <g id="Group_402" data-name="Group 402">
      <path id="Path_3150" data-name="Path 3150" d="M343.792,361.526a1.758,1.758,0,0,0-2.486-.021l-5.926,5.829-2.4-2.323a1.758,1.758,0,1,0-2.445,2.526l3.633,3.516a1.758,1.758,0,0,0,2.455-.01l7.148-7.031A1.758,1.758,0,0,0,343.792,361.526Z" transform="translate(-330 -361)"/>
    </g>
  </g>
</svg>
