<svg xmlns="http://www.w3.org/2000/svg" width="1366" height="220" viewBox="0 0 1366 220">
  <g id="Group_390" data-name="Group 390" transform="translate(0 -3447)">
    <rect id="Rectangle_56" data-name="Rectangle 56" width="1366" height="220" transform="translate(0 3447)" fill="#28367d"/>
    <path id="Intersection_1" data-name="Intersection 1" d="M924.527,220q.211-.017.426-.017t.426.017Zm-22.18,0a5.488,5.488,0,0,1,2.586,0Zm-23.137,0a6.116,6.116,0,0,1,6.239,0Zm-21.673,0a6.292,6.292,0,0,1,6.976,0Zm-22.165,0a6.771,6.771,0,0,1,8.667,0Zm-22.409,0a7.475,7.475,0,0,1,10.872,0Zm-21.574,0a7.65,7.65,0,0,1,11.394,0ZM769.5,220a8.069,8.069,0,0,1,12.548,0Zm-21.312,0a8.073,8.073,0,0,1,12.552,0Zm-21.309,0a8.069,8.069,0,0,1,12.548,0Zm-21.313,0a8.069,8.069,0,0,1,12.548,0Zm-21.313,0a8.075,8.075,0,0,1,12.554,0Zm-21.313,0a8.075,8.075,0,0,1,12.554,0Zm-21.307,0a8.069,8.069,0,0,1,12.547,0ZM620.9,220a7.65,7.65,0,0,1,11.394,0Zm-19.94,0a6.771,6.771,0,0,1,8.666,0Zm-21.318,0a6.778,6.778,0,0,1,8.671,0Zm-20.686,0a6.411,6.411,0,0,1,7.416,0Zm-18.9,0a5.491,5.491,0,0,1,2.586,0Zm56.607-16.944c0-5.229,3.856-9.457,8.633-9.457,4.754,0,8.62,4.228,8.62,9.457s-3.866,9.446-8.62,9.446C600.516,212.5,596.66,208.273,596.66,203.056Zm213.164,0c0-5.179,3.844-9.382,8.575-9.382s8.575,4.2,8.575,9.382-3.844,9.383-8.575,9.383S809.825,208.236,809.825,203.056Zm21.438,0c0-5.116,3.776-9.27,8.45-9.27s8.45,4.154,8.45,9.27-3.787,9.246-8.45,9.246S831.263,208.16,831.263,203.056Zm21.6,0c0-4.941,3.65-8.932,8.166-8.932,4.493,0,8.155,3.991,8.155,8.932s-3.662,8.92-8.155,8.92C856.51,211.976,852.86,207.985,852.86,203.056Zm-63.928,0c0-4.941,3.651-8.932,8.155-8.932s8.154,3.991,8.154,8.932-3.65,8.92-8.154,8.92S788.932,207.985,788.932,203.056Zm-213.118,0c0-4.941,3.662-8.932,8.166-8.932s8.143,3.991,8.143,8.932-3.639,8.92-8.143,8.92S575.814,207.985,575.814,203.056Zm191.93,0c0-4.867,3.594-8.807,8.03-8.807s8.041,3.94,8.041,8.807-3.605,8.8-8.041,8.8S767.744,207.91,767.744,203.056Zm-149.18,0c0-4.867,3.595-8.807,8.03-8.807s8.041,3.94,8.041,8.807-3.605,8.8-8.041,8.8S618.565,207.91,618.565,203.056Zm127.923,0c0-4.829,3.571-8.745,7.984-8.745,4.39,0,7.973,3.915,7.973,8.745s-3.583,8.733-7.973,8.733C750.059,211.789,746.488,207.872,746.488,203.056Zm-21.313,0c0-4.829,3.571-8.745,7.984-8.745,4.39,0,7.973,3.915,7.973,8.745s-3.583,8.733-7.973,8.733C728.746,211.789,725.175,207.872,725.175,203.056Zm-21.313,0c0-4.829,3.571-8.745,7.984-8.745s7.973,3.915,7.973,8.745-3.571,8.733-7.973,8.733S703.862,207.872,703.862,203.056Zm-21.313,0c0-4.829,3.571-8.745,7.984-8.745s7.972,3.915,7.972,8.745-3.57,8.733-7.972,8.733S682.549,207.872,682.549,203.056Zm-21.313,0c0-4.829,3.571-8.745,7.984-8.745s7.972,3.915,7.972,8.745-3.571,8.733-7.972,8.733S661.236,207.872,661.236,203.056Zm-21.188,0c0-4.754,3.515-8.619,7.859-8.619s7.859,3.865,7.859,8.619-3.514,8.6-7.859,8.6S640.049,207.81,640.049,203.056Zm-84.717,0c0-4.441,3.287-8.032,7.324-8.032s7.335,3.591,7.335,8.032-3.287,8.019-7.335,8.019S555.332,207.485,555.332,203.056Zm319.729,0c0-4.4,3.253-7.969,7.268-7.969s7.278,3.565,7.278,7.969S886.342,211,882.328,211,875.06,207.447,875.06,203.056Zm-340.86,0c0-4.328,3.207-7.831,7.142-7.831,3.957,0,7.153,3.5,7.153,7.831s-3.2,7.832-7.153,7.832C537.407,210.888,534.2,207.372,534.2,203.056Zm362.468,0c0-4.215,3.117-7.644,6.972-7.644s6.971,3.428,6.971,7.644-3.117,7.632-6.971,7.632S896.668,207.272,896.668,203.056Zm-383.6,0c0-4.215,3.116-7.644,6.971-7.644s6.972,3.428,6.972,7.644-3.117,7.632-6.972,7.632S513.069,207.272,513.069,203.056Zm405.265,0c0-4.015,2.968-7.256,6.62-7.256s6.619,3.24,6.619,7.256-2.968,7.244-6.619,7.244S918.334,207.059,918.334,203.056Zm-425.633,0c0-3.653,2.7-6.618,6.027-6.618s6.028,2.965,6.028,6.618a6.052,6.052,0,1,1-12.056,0Zm468.908,0a6.275,6.275,0,0,1,5.971-6.543c3.287,0,5.959,2.927,5.959,6.543a5.989,5.989,0,1,1-11.93,0Zm-21.3,0a5.984,5.984,0,1,1,5.96,6.53A6.266,6.266,0,0,1,940.307,203.056Zm42.785,0a5.817,5.817,0,1,1,5.789,6.33A6.1,6.1,0,0,1,983.092,203.056Zm-510.988,0a5.339,5.339,0,1,1,5.311,5.83A5.583,5.583,0,0,1,472.1,203.056Zm533.245,0a4.87,4.87,0,1,1,4.845,5.3A5.1,5.1,0,0,1,1005.349,203.056Zm-554.091,0a4.87,4.87,0,1,1,4.845,5.3A5.1,5.1,0,0,1,451.257,203.056Zm-21.3,0a4.865,4.865,0,1,1,4.834,5.3A5.088,5.088,0,0,1,429.955,203.056Zm-21.313,0a4.865,4.865,0,1,1,4.846,5.3A5.09,5.09,0,0,1,408.642,203.056Zm-404.742,0a4.91,4.91,0,0,1,4.675-5.116,5.132,5.132,0,0,1,0,10.221A4.906,4.906,0,0,1,3.9,203.056Zm1023.17,0a4.453,4.453,0,1,1,4.435,4.842A4.667,4.667,0,0,1,1027.071,203.056Zm-1001.618,0a4.658,4.658,0,0,1,4.424-4.866,4.874,4.874,0,0,1,0,9.708A4.652,4.652,0,0,1,25.453,203.056Zm1022.988,0a4.4,4.4,0,1,1,4.378,4.779A4.593,4.593,0,0,1,1048.441,203.056Zm21.848,0a3.86,3.86,0,1,1,3.844,4.2A4.049,4.049,0,0,1,1070.288,203.056Zm-1022.943,0a3.86,3.86,0,1,1,3.845,4.2A4.049,4.049,0,0,1,47.345,203.056Zm341.11,0a3.734,3.734,0,1,1,3.719,4.066A3.9,3.9,0,0,1,388.455,203.056Zm-21.313,0a3.734,3.734,0,1,1,3.719,4.066A3.9,3.9,0,0,1,367.142,203.056Zm-298.358,0a3.734,3.734,0,1,1,3.719,4.066A3.907,3.907,0,0,1,68.784,203.056Zm1023,0a3.671,3.671,0,1,1,3.662,4A3.849,3.849,0,0,1,1091.784,203.056Zm-1001.63,0a3.677,3.677,0,1,1,3.662,4A3.856,3.856,0,0,1,90.154,203.056Zm255.79,0a3.619,3.619,0,1,1,3.6,3.941A3.788,3.788,0,0,1,345.944,203.056Zm767.38,0a3.442,3.442,0,1,1,3.424,3.741A3.6,3.6,0,0,1,1113.323,203.056Zm-788.329,0a3.26,3.26,0,1,1,3.241,3.553A3.406,3.406,0,0,1,324.995,203.056Zm-213.062,0a3.208,3.208,0,1,1,3.2,3.491A3.359,3.359,0,0,1,111.933,203.056Zm1236.174,0a3.083,3.083,0,1,1,3.071,3.353A3.23,3.23,0,0,1,1348.107,203.056Zm-21.2,0a2.968,2.968,0,1,1,2.946,3.227A3.1,3.1,0,0,1,1326.909,203.056Zm-149.169,0a2.963,2.963,0,1,1,2.946,3.227A3.1,3.1,0,0,1,1177.74,203.056Zm-42.637,0a2.968,2.968,0,1,1,2.957,3.227A3.105,3.105,0,0,1,1135.1,203.056Zm-831.127,0a2.963,2.963,0,1,1,2.957,3.227A3.1,3.1,0,0,1,303.977,203.056Zm-42.626,0a2.968,2.968,0,1,1,2.957,3.227A3.106,3.106,0,0,1,261.351,203.056Zm-63.927,0a2.963,2.963,0,1,1,2.956,3.227A3.1,3.1,0,0,1,197.424,203.056Zm-63.94,0a2.968,2.968,0,1,1,2.957,3.227A3.1,3.1,0,0,1,133.484,203.056Zm1023,0a2.907,2.907,0,1,1,2.894,3.183A3.048,3.048,0,0,1,1156.483,203.052Zm149.18,0a2.9,2.9,0,1,1,2.889,3.178A3.04,3.04,0,0,1,1305.663,203.056Zm-1086.87,0a2.907,2.907,0,1,1,2.889,3.178A3.033,3.033,0,0,1,218.794,203.056Zm-63.939,0a2.907,2.907,0,1,1,2.888,3.178A3.04,3.04,0,0,1,154.855,203.056Zm127.923,0a2.849,2.849,0,1,1,2.843,3.1A2.984,2.984,0,0,1,282.778,203.056Zm-42.615,0a2.844,2.844,0,1,1,2.832,3.1A2.976,2.976,0,0,1,240.163,203.056Zm-63.939,0a2.849,2.849,0,1,1,2.831,3.1A2.983,2.983,0,0,1,176.225,203.056Zm1065.613,0a2.792,2.792,0,1,1,2.776,3.04A2.928,2.928,0,0,1,1241.838,203.056Zm-21.313,0a2.792,2.792,0,1,1,2.776,3.04A2.927,2.927,0,0,1,1220.525,203.056Zm42.683,0a2.735,2.735,0,1,1,2.718,2.978A2.871,2.871,0,0,1,1263.208,203.056Zm-63.928,0a2.729,2.729,0,1,1,2.718,2.978A2.856,2.856,0,0,1,1199.281,203.056Zm85.366,0a2.609,2.609,0,1,1,2.593,2.84A2.731,2.731,0,0,1,1284.647,203.056ZM554.035,179.7c0-5.2,3.867-9.433,8.621-9.433s8.632,4.228,8.632,9.433-3.867,9.458-8.632,9.458S554.035,184.916,554.035,179.7Zm298.416,0c0-5.18,3.833-9.383,8.575-9.383s8.564,4.2,8.564,9.383-3.833,9.382-8.564,9.382S852.45,184.891,852.45,179.7Zm21.427,0c0-5.1,3.787-9.246,8.45-9.246s8.45,4.141,8.45,9.246-3.776,9.269-8.45,9.269S873.878,184.816,873.878,179.7Zm-42.387,0c0-4.967,3.673-8.983,8.222-8.983,4.526,0,8.212,4.016,8.212,8.983s-3.685,9.007-8.212,9.007C835.163,188.707,831.49,184.678,831.49,179.7Zm64,0c0-4.929,3.651-8.92,8.155-8.92s8.166,3.991,8.166,8.92-3.662,8.932-8.166,8.932S895.486,184.641,895.486,179.7Zm-85.241,0c0-4.929,3.64-8.92,8.155-8.92s8.154,3.991,8.154,8.92-3.65,8.932-8.154,8.932S810.245,184.641,810.245,179.7Zm-277.045,0c0-4.929,3.65-8.92,8.143-8.92,4.514,0,8.166,3.991,8.166,8.92s-3.651,8.932-8.166,8.932C536.85,188.632,533.2,184.641,533.2,179.7Zm255.857,0c0-4.854,3.595-8.8,8.03-8.8s8.041,3.941,8.041,8.8-3.605,8.807-8.041,8.807S789.057,184.566,789.057,179.7Zm-191.748,0c0-4.817,3.57-8.733,7.984-8.733s7.972,3.915,7.972,8.733-3.571,8.745-7.972,8.745S597.309,184.528,597.309,179.7Zm170.606,0c0-4.742,3.514-8.607,7.859-8.607s7.859,3.865,7.859,8.607-3.515,8.619-7.859,8.619S767.915,184.454,767.915,179.7Zm-127.867,0c0-4.742,3.515-8.607,7.859-8.607s7.859,3.865,7.859,8.607-3.514,8.619-7.859,8.619S640.049,184.454,640.049,179.7Zm-21.313,0c0-4.742,3.525-8.607,7.859-8.607s7.859,3.865,7.859,8.607-3.515,8.619-7.859,8.619S618.736,184.454,618.736,179.7Zm-42.614,0c0-4.742,3.514-8.607,7.858-8.607s7.848,3.865,7.848,8.607-3.515,8.619-7.848,8.619S576.122,184.454,576.122,179.7Zm149.531,0c0-4.542,3.344-8.22,7.506-8.22,4.14,0,7.5,3.678,7.5,8.22s-3.355,8.231-7.5,8.231C729,187.931,725.653,184.253,725.653,179.7Zm-21.267,0c0-4.5,3.344-8.158,7.46-8.158s7.438,3.653,7.438,8.158-3.333,8.169-7.438,8.169S704.386,184.215,704.386,179.7Zm-21.177,0c0-4.429,3.275-8.019,7.324-8.019s7.324,3.59,7.324,8.019-3.275,8.031-7.324,8.031S683.209,184.141,683.209,179.7Zm277.091,0c0-4.392,3.253-7.957,7.279-7.957s7.268,3.565,7.268,7.957-3.253,7.969-7.268,7.969S960.3,184.1,960.3,179.7Zm-42.614,0c0-4.392,3.253-7.957,7.267-7.957s7.267,3.565,7.267,7.957-3.253,7.969-7.267,7.969S917.686,184.1,917.686,179.7Zm-255.733,0c0-4.392,3.253-7.957,7.267-7.957s7.268,3.565,7.268,7.957-3.253,7.969-7.268,7.969S661.953,184.1,661.953,179.7Zm-149.18,0c0-4.392,3.253-7.957,7.267-7.957s7.268,3.565,7.268,7.957-3.253,7.969-7.268,7.969S512.773,184.1,512.773,179.7Zm234.716,0c0-4.2,3.128-7.632,6.982-7.632s6.961,3.428,6.961,7.632-3.116,7.644-6.961,7.644S747.49,183.915,747.49,179.7Zm191.862,0c0-4.179,3.093-7.569,6.915-7.569s6.9,3.391,6.9,7.569-3.082,7.581-6.9,7.581S939.352,183.878,939.352,179.7Zm-447.425,0c0-4.1,3.048-7.432,6.8-7.432s6.8,3.328,6.8,7.432-3.048,7.443-6.8,7.443S491.927,183.815,491.927,179.7Zm-20.482,0a6,6,0,1,1,5.971,6.543A6.271,6.271,0,0,1,471.444,179.7Zm-21.313,0a6,6,0,1,1,5.971,6.543A6.271,6.271,0,0,1,450.131,179.7Zm532.96,0a5.819,5.819,0,1,1,5.789,6.355A6.082,6.082,0,0,1,983.092,179.7Zm21.552,0a5.579,5.579,0,1,1,5.549,6.093A5.84,5.84,0,0,1,1004.644,179.7Zm-1001.63,0a5.842,5.842,0,0,1,5.561-6.081,6.112,6.112,0,0,1,0,12.173A5.845,5.845,0,0,1,3.014,179.7Zm21.961,0a5.151,5.151,0,0,1,4.9-5.368,5.395,5.395,0,0,1,0,10.746A5.153,5.153,0,0,1,24.975,179.7Zm1001.686,0a4.865,4.865,0,1,1,4.845,5.3A5.083,5.083,0,0,1,1026.661,179.7Zm-596.706,0a4.865,4.865,0,1,1,4.834,5.3A5.074,5.074,0,0,1,429.955,179.7Zm-21.313,0a4.865,4.865,0,1,1,4.846,5.3A5.075,5.075,0,0,1,408.642,179.7Zm-21.313,0a4.865,4.865,0,1,1,4.845,5.3A5.075,5.075,0,0,1,387.329,179.7Zm660.827,0a4.684,4.684,0,1,1,4.664,5.129A4.917,4.917,0,0,1,1048.156,179.7Zm-1001.572,0a4.631,4.631,0,1,1,4.606,5.054A4.848,4.848,0,0,1,46.584,179.7Zm21.551,0A4.391,4.391,0,1,1,72.5,184.49,4.6,4.6,0,0,1,68.135,179.7Zm1001.858,0a4.152,4.152,0,1,1,4.139,4.541A4.347,4.347,0,0,1,1069.993,179.7Zm21.608,0a3.855,3.855,0,1,1,3.845,4.215A4.035,4.035,0,0,1,1091.6,179.7Zm-724.584,0a3.861,3.861,0,1,1,3.844,4.215A4.034,4.034,0,0,1,367.017,179.7Zm-277.045,0a3.86,3.86,0,1,1,3.844,4.215A4.027,4.027,0,0,1,89.972,179.7Zm255.8,0a3.8,3.8,0,1,1,3.776,4.153A3.98,3.98,0,0,1,345.773,179.7Zm-234.431,0a3.8,3.8,0,1,1,3.787,4.153A3.982,3.982,0,0,1,111.342,179.7Zm1023,0a3.736,3.736,0,1,1,3.719,4.091A3.924,3.924,0,0,1,1134.341,179.7Zm-809.825,0a3.741,3.741,0,1,1,3.719,4.091A3.925,3.925,0,0,1,324.517,179.7Zm-21.313,0a3.741,3.741,0,1,1,3.73,4.091A3.918,3.918,0,0,1,303.2,179.7Zm809.881,0a3.679,3.679,0,1,1,3.662,4.028A3.848,3.848,0,0,1,1113.085,179.7Zm-831.137,0a3.684,3.684,0,1,1,3.674,4.028A3.857,3.857,0,0,1,281.948,179.7Zm-149.111,0a3.621,3.621,0,1,1,3.605,3.953A3.793,3.793,0,0,1,132.836,179.7Zm1023.056,0a3.5,3.5,0,1,1,3.48,3.827A3.66,3.66,0,0,1,1155.893,179.7Zm191.863,0a3.438,3.438,0,1,1,3.423,3.753A3.58,3.58,0,0,1,1347.755,179.7Zm-1086.814,0a3.381,3.381,0,1,1,3.367,3.69A3.535,3.535,0,0,1,260.941,179.7Zm-106.439,0a3.262,3.262,0,1,1,3.241,3.578A3.409,3.409,0,0,1,154.5,179.7Zm42.683,0a3.2,3.2,0,1,1,3.2,3.5A3.348,3.348,0,0,1,197.185,179.7Zm-21.313,0a3.2,3.2,0,1,1,3.184,3.5A3.354,3.354,0,0,1,175.872,179.7Zm64,0A3.142,3.142,0,1,1,243,183.14,3.29,3.29,0,0,1,239.868,179.7Zm-21.314,0a3.142,3.142,0,1,1,3.128,3.44A3.291,3.291,0,0,1,218.554,179.7Zm1108.355,0a2.969,2.969,0,1,1,2.946,3.24A3.108,3.108,0,0,1,1326.909,179.7Zm-106.554,0a2.969,2.969,0,1,1,2.946,3.24A3.108,3.108,0,0,1,1220.355,179.7Zm-42.615,0a2.964,2.964,0,1,1,2.946,3.24A3.1,3.1,0,0,1,1177.74,179.7Zm85.3,0a2.907,2.907,0,1,1,2.889,3.177A3.044,3.044,0,0,1,1263.038,179.7Zm-63.939,0a2.907,2.907,0,1,1,2.9,3.177A3.053,3.053,0,0,1,1199.1,179.7Zm106.61,0a2.849,2.849,0,1,1,2.843,3.1A2.989,2.989,0,0,1,1305.709,179.7Zm-21.313,0a2.849,2.849,0,1,1,2.843,3.1A2.989,2.989,0,0,1,1284.4,179.7Zm-42.558,0a2.793,2.793,0,1,1,2.776,3.052A2.933,2.933,0,0,1,1241.838,179.7ZM511.477,156.356c0-5.18,3.832-9.383,8.564-9.383s8.564,4.2,8.564,9.383-3.833,9.4-8.564,9.4S511.477,161.547,511.477,156.356Zm21.541,0c0-5.029,3.73-9.12,8.325-9.12,4.617,0,8.336,4.091,8.336,9.12,0,5.054-3.719,9.132-8.336,9.132C536.747,165.487,533.018,161.41,533.018,156.356Zm341.1,0c0-4.954,3.673-8.983,8.211-8.983s8.223,4.029,8.223,8.983c0,4.979-3.685,9.007-8.223,9.007S874.116,161.334,874.116,156.356Zm42.682,0c0-4.929,3.651-8.933,8.155-8.933s8.154,4,8.154,8.933-3.65,8.945-8.154,8.945S916.8,161.3,916.8,156.356Zm-21.313,0c0-4.929,3.651-8.933,8.155-8.933s8.166,4,8.166,8.933-3.662,8.945-8.166,8.945S895.486,161.3,895.486,156.356Zm-42.5,0c0-4.854,3.594-8.8,8.041-8.8s8.029,3.941,8.029,8.8c0,4.879-3.594,8.807-8.029,8.807S852.985,161.234,852.985,156.356Zm-298.359,0c0-4.854,3.594-8.8,8.03-8.8s8.041,3.941,8.041,8.8c0,4.879-3.594,8.807-8.041,8.807S554.626,161.234,554.626,156.356Zm21.371,0c0-4.829,3.57-8.733,7.983-8.733s7.973,3.9,7.973,8.733-3.571,8.757-7.973,8.757S576,161.184,576,156.356Zm255.846,0c0-4.754,3.526-8.6,7.87-8.6s7.847,3.841,7.847,8.6-3.5,8.619-7.847,8.619S831.842,161.122,831.842,156.356Zm-340.439,0c0-4.429,3.276-8.019,7.324-8.019s7.324,3.59,7.324,8.019-3.275,8.031-7.324,8.031S491.4,160.8,491.4,156.356Zm468.9,0c0-4.392,3.253-7.957,7.279-7.957s7.268,3.565,7.268,7.957-3.253,7.969-7.268,7.969S960.3,160.759,960.3,156.356Zm-21.313,0c0-4.392,3.253-7.957,7.279-7.957s7.268,3.565,7.268,7.957-3.254,7.969-7.268,7.969S938.987,160.759,938.987,156.356Zm-340.973,0c0-4.392,3.264-7.957,7.279-7.957s7.267,3.565,7.267,7.957-3.253,7.969-7.267,7.969S598.014,160.759,598.014,156.356Zm191.919,0c0-4.316,3.208-7.832,7.154-7.832s7.153,3.515,7.153,7.832c0,4.341-3.207,7.831-7.153,7.831S789.933,160.7,789.933,156.356Zm-149.179,0c0-4.316,3.207-7.832,7.153-7.832s7.154,3.515,7.154,7.832c0,4.341-3.208,7.831-7.154,7.831S640.754,160.7,640.754,156.356Zm170.549,0c0-4.292,3.173-7.757,7.1-7.757s7.1,3.465,7.1,7.757-3.173,7.769-7.1,7.769S811.3,160.659,811.3,156.356Zm-42.512,0c0-4.216,3.128-7.632,6.983-7.632s6.971,3.416,6.971,7.632-3.116,7.656-6.971,7.656S768.791,160.584,768.791,156.356Zm-149.168,0c0-4.216,3.128-7.632,6.971-7.632s6.971,3.416,6.971,7.632-3.116,7.656-6.971,7.656S619.623,160.584,619.623,156.356Zm-149.18,0c0-4.216,3.116-7.632,6.971-7.632s6.971,3.416,6.971,7.632-3.116,7.656-6.971,7.656S470.444,160.584,470.444,156.356Zm255.79,0c0-4.179,3.1-7.557,6.925-7.557s6.9,3.378,6.9,7.557-3.093,7.58-6.9,7.58S726.233,160.546,726.233,156.356Zm-21.314,0c0-4.179,3.105-7.557,6.926-7.557s6.9,3.378,6.9,7.557-3.083,7.58-6.9,7.58S704.92,160.546,704.92,156.356Zm277.16,0c0-4.1,3.059-7.432,6.8-7.432s6.8,3.328,6.8,7.432-3.048,7.456-6.8,7.456S982.08,160.471,982.08,156.356Zm-298.347,0c0-4.1,3.047-7.432,6.8-7.432s6.79,3.328,6.79,7.432-3.037,7.456-6.79,7.456S683.733,160.471,683.733,156.356Zm-21.314,0c0-4.1,3.048-7.432,6.8-7.432s6.79,3.328,6.79,7.432-3.037,7.456-6.79,7.456S662.419,160.471,662.419,156.356Zm85.309,0c0-4.066,3.025-7.381,6.744-7.381s6.733,3.315,6.733,7.381-3.025,7.381-6.733,7.381S747.728,160.433,747.728,156.356Zm256.506,0a5.989,5.989,0,1,1,11.93,0c0,3.615-2.672,6.555-5.971,6.555S1004.234,159.971,1004.234,156.356Zm-554.1,0a5.995,5.995,0,1,1,11.941,0c0,3.615-2.672,6.555-5.971,6.555S450.131,159.971,450.131,156.356Zm-447.357,0a6.1,6.1,0,0,1,5.8-6.343,6.376,6.376,0,0,1,0,12.7A6.1,6.1,0,0,1,2.775,156.356Zm1023,0a5.756,5.756,0,1,1,5.732,6.28A6.018,6.018,0,0,1,1025.774,156.356Zm-596.717,0a5.761,5.761,0,1,1,5.732,6.28A6.018,6.018,0,0,1,429.057,156.356Zm-404.73,0a5.84,5.84,0,0,1,5.55-6.081,6.118,6.118,0,0,1,0,12.185A5.855,5.855,0,0,1,24.327,156.356Zm1023.056,0a5.46,5.46,0,1,1,5.437,5.967A5.709,5.709,0,0,1,1047.383,156.356Zm-639.1,0a5.225,5.225,0,1,1,5.209,5.7A5.469,5.469,0,0,1,408.279,156.356Zm-361.991,0a4.923,4.923,0,1,1,4.9,5.379A5.15,5.15,0,0,1,46.288,156.356Zm1022.989,0a4.871,4.871,0,1,1,4.856,5.316A5.1,5.1,0,0,1,1069.276,156.356Zm-703.26,0a4.866,4.866,0,1,1,4.845,5.316A5.094,5.094,0,0,1,366.017,156.356Zm21.484,0a4.688,4.688,0,1,1,4.674,5.116A4.906,4.906,0,0,1,387.5,156.356Zm-42.615,0a4.688,4.688,0,1,1,4.663,5.116A4.9,4.9,0,0,1,344.885,156.356Zm746.068,0a4.512,4.512,0,1,1,4.492,4.928A4.7,4.7,0,0,1,1090.953,156.356Zm-980.317,0a4.512,4.512,0,1,1,4.493,4.928A4.709,4.709,0,0,1,110.636,156.356Zm-42.626,0a4.512,4.512,0,1,1,4.493,4.928A4.709,4.709,0,0,1,68.01,156.356Zm21.609,0a4.215,4.215,0,1,1,4.2,4.6A4.411,4.411,0,0,1,89.619,156.356Zm1023,0a4.152,4.152,0,1,1,4.128,4.541A4.346,4.346,0,0,1,1112.619,156.356Zm234.715,0a3.855,3.855,0,1,1,3.844,4.215A4.038,4.038,0,0,1,1347.334,156.356Zm-1022.931,0a3.855,3.855,0,1,1,3.832,4.215A4.036,4.036,0,0,1,324.4,156.356Zm809.881,0a3.8,3.8,0,1,1,3.776,4.153A3.98,3.98,0,0,1,1134.284,156.356Zm-831.137,0a3.8,3.8,0,1,1,3.787,4.153A3.982,3.982,0,0,1,303.147,156.356Zm-42.626,0a3.8,3.8,0,1,1,3.787,4.153A3.982,3.982,0,0,1,260.521,156.356Zm1044.3,0a3.745,3.745,0,1,1,3.73,4.078A3.913,3.913,0,0,1,1304.822,156.356Zm-1150.8,0a3.74,3.74,0,1,1,3.719,4.078A3.9,3.9,0,0,1,154.024,156.356Zm127.923,0a3.683,3.683,0,1,1,3.674,4.015A3.858,3.858,0,0,1,281.948,156.356Zm-106.554,0a3.683,3.683,0,1,1,3.662,4.015A3.849,3.849,0,0,1,175.394,156.356Zm1150.866,0a3.622,3.622,0,1,1,3.594,3.965A3.784,3.784,0,0,1,1326.26,156.356Zm-170.492,0a3.627,3.627,0,1,1,3.605,3.965A3.785,3.785,0,0,1,1155.767,156.356Zm-959,0a3.621,3.621,0,1,1,3.616,3.965A3.786,3.786,0,0,1,196.764,156.356Zm-63.928,0a3.622,3.622,0,1,1,3.605,3.965A3.785,3.785,0,0,1,132.836,156.356Zm1108.3,0a3.5,3.5,0,1,1,3.48,3.827A3.663,3.663,0,0,1,1241.133,156.356Zm-1022.943,0a3.506,3.506,0,1,1,3.492,3.827A3.672,3.672,0,0,1,218.191,156.356Zm21.37,0A3.444,3.444,0,1,1,243,160.121,3.616,3.616,0,0,1,239.56,156.356Zm1023,0a3.381,3.381,0,1,1,3.367,3.691A3.55,3.55,0,0,1,1262.56,156.356Zm-85.24,0a3.381,3.381,0,1,1,3.366,3.691A3.543,3.543,0,0,1,1177.32,156.356Zm21.37,0a3.323,3.323,0,1,1,3.309,3.627A3.475,3.475,0,0,1,1198.689,156.356Zm85.366,0a3.205,3.205,0,1,1,3.184,3.516A3.346,3.346,0,0,1,1284.055,156.356Zm-63.882,0a3.147,3.147,0,1,1,3.128,3.44A3.286,3.286,0,0,1,1220.173,156.356ZM490.108,133.023c0-5.229,3.855-9.457,8.62-9.457s8.632,4.228,8.632,9.457-3.866,9.446-8.632,9.446S490.108,138.241,490.108,133.023Zm447.709,0c0-5.116,3.787-9.257,8.45-9.257s8.45,4.141,8.45,9.257-3.787,9.246-8.45,9.246S937.816,138.128,937.816,133.023Zm-42.331,0c0-4.941,3.651-8.945,8.155-8.945s8.166,4,8.166,8.945-3.662,8.933-8.166,8.933S895.486,137.952,895.486,133.023Zm-362.286,0c0-4.941,3.65-8.945,8.143-8.945,4.514,0,8.166,4,8.166,8.945s-3.651,8.933-8.166,8.933C536.85,141.956,533.2,137.952,533.2,133.023Zm383.724,0c0-4.866,3.583-8.807,8.03-8.807s8.041,3.941,8.041,8.807-3.594,8.8-8.041,8.8S916.924,137.89,916.924,133.023Zm-404.924,0c0-4.866,3.605-8.807,8.041-8.807s8.03,3.941,8.03,8.807-3.594,8.8-8.03,8.8S512,137.89,512,133.023Zm362.469,0c0-4.754,3.525-8.619,7.859-8.619s7.859,3.865,7.859,8.619-3.515,8.607-7.859,8.607S874.469,137.777,874.469,133.023Zm85.422,0c0-4.654,3.446-8.419,7.689-8.419s7.676,3.765,7.676,8.419-3.434,8.407-7.676,8.407S959.891,137.664,959.891,133.023Zm-106.371,0c0-4.541,3.355-8.219,7.506-8.219s7.5,3.678,7.5,8.219-3.355,8.22-7.5,8.22S853.52,137.553,853.52,133.023Zm-383.611,0c0-4.541,3.366-8.219,7.506-8.219s7.506,3.678,7.506,8.219-3.355,8.22-7.506,8.22S469.909,137.553,469.909,133.023Zm362.472,0c0-4.453,3.282-8.063,7.331-8.063s7.33,3.609,7.33,8.063-3.281,8.064-7.33,8.064S832.381,137.476,832.381,133.023Zm149.232,0c0-4.4,3.264-7.968,7.267-7.968,4.027,0,7.279,3.565,7.279,7.968s-3.253,7.957-7.279,7.957C984.877,140.98,981.613,137.427,981.613,133.023Zm-170.31,0c0-4.291,3.173-7.769,7.1-7.769s7.1,3.478,7.1,7.769-3.173,7.757-7.1,7.757S811.3,137.315,811.3,133.023Zm-362.287,0c0-4.291,3.173-7.769,7.086-7.769s7.1,3.478,7.1,7.769-3.173,7.757-7.1,7.757S449.016,137.315,449.016,133.023Zm106.667,0c0-4.228,3.128-7.644,6.972-7.644s6.983,3.415,6.983,7.644-3.128,7.632-6.983,7.632S555.683,137.24,555.683,133.023Zm447.607,0c0-4.191,3.093-7.569,6.9-7.569s6.915,3.378,6.915,7.569-3.093,7.557-6.915,7.557S1003.29,137.2,1003.29,133.023Zm-404.742,0c0-4.078,3.014-7.38,6.745-7.38,3.707,0,6.732,3.3,6.732,7.38S609,140.4,605.293,140.4C601.563,140.4,598.549,137.089,598.549,133.023Zm-21.313,0c0-4.078,3.014-7.38,6.744-7.38s6.733,3.3,6.733,7.38-3.013,7.381-6.733,7.381S577.236,137.089,577.236,133.023Zm-575.279,0c0-4,2.957-7.256,6.619-7.256s6.62,3.253,6.62,7.256-2.968,7.244-6.62,7.244S1.957,137.014,1.957,133.023Zm767.437,0c0-3.865,2.854-7.005,6.38-7.005s6.38,3.14,6.38,7.005-2.855,6.993-6.38,6.993S769.394,136.889,769.394,133.023Zm-340.985,0c0-3.865,2.866-7.005,6.38-7.005,3.537,0,6.392,3.14,6.392,7.005s-2.855,6.993-6.392,6.993C431.275,140.017,428.409,136.889,428.409,133.023Zm319.729,0c0-3.828,2.831-6.93,6.334-6.93,3.48,0,6.313,3.1,6.313,6.93s-2.832,6.931-6.313,6.931C750.969,139.954,748.138,136.852,748.138,133.023Zm-42.615,0c0-3.828,2.821-6.93,6.323-6.93,3.48,0,6.313,3.1,6.313,6.93s-2.832,6.931-6.313,6.931C708.343,139.954,705.523,136.852,705.523,133.023Zm-21.324,0c0-3.828,2.843-6.93,6.334-6.93s6.313,3.1,6.313,6.93-2.821,6.931-6.313,6.931S684.2,136.852,684.2,133.023Zm-21.3,0c0-3.828,2.821-6.93,6.323-6.93s6.323,3.1,6.323,6.93-2.831,6.931-6.323,6.931S662.9,136.852,662.9,133.023Zm-21.313,0c0-3.828,2.832-6.93,6.323-6.93s6.323,3.1,6.323,6.93-2.832,6.931-6.323,6.931S641.584,136.852,641.584,133.023Zm-21.313,0c0-3.828,2.831-6.93,6.323-6.93s6.323,3.1,6.323,6.93-2.832,6.931-6.323,6.931S620.271,136.852,620.271,133.023Zm106.735,0a6.453,6.453,0,0,1,6.152-6.73c3.389,0,6.142,3,6.142,6.73s-2.752,6.731-6.142,6.731S727.007,136.739,727.007,133.023Zm298.541,0a5.99,5.99,0,1,1,5.959,6.531A6.254,6.254,0,0,1,1025.547,133.023Zm-1001.63,0a6.262,6.262,0,0,1,5.96-6.53,6.557,6.557,0,0,1,0,13.061A6.27,6.27,0,0,1,23.917,133.023Zm767.312,0a5.875,5.875,0,1,1,5.857,6.405A6.162,6.162,0,0,1,791.23,133.023Zm255.872,0a5.746,5.746,0,1,1,5.72,6.292A6.026,6.026,0,0,1,1047.1,133.023Zm-1001.518,0a5.9,5.9,0,0,1,5.607-6.155,6.174,6.174,0,0,1,0,12.3A5.889,5.889,0,0,1,45.583,133.023Zm362.354,0a5.573,5.573,0,1,1,5.549,6.081A5.825,5.825,0,0,1,407.938,133.023Zm660.758,0a5.459,5.459,0,1,1,5.436,5.955A5.708,5.708,0,0,1,1068.7,133.023Zm-681.844,0a5.344,5.344,0,1,1,5.322,5.83A5.584,5.584,0,0,1,386.852,133.023Zm-319.433,0a5.1,5.1,0,1,1,5.084,5.555A5.339,5.339,0,0,1,67.419,133.023Zm42.808,0a4.922,4.922,0,1,1,4.9,5.367A5.162,5.162,0,0,1,110.227,133.023Zm980.363,0a4.87,4.87,0,1,1,4.856,5.3A5.113,5.113,0,0,1,1090.589,133.023Zm-724.573,0a4.865,4.865,0,1,1,4.845,5.3A5.1,5.1,0,0,1,366.017,133.023Zm-277.045,0a4.865,4.865,0,1,1,4.845,5.3A5.1,5.1,0,0,1,88.971,133.023Zm255.857,0a4.745,4.745,0,1,1,4.72,5.18A4.965,4.965,0,0,1,344.829,133.023Zm-21.256,0a4.687,4.687,0,1,1,4.663,5.1A4.9,4.9,0,0,1,323.573,133.023Zm788.693,0a4.511,4.511,0,1,1,4.481,4.917A4.716,4.716,0,0,1,1112.266,133.023Zm-980.317,0a4.506,4.506,0,1,1,4.493,4.917A4.725,4.725,0,0,1,131.949,133.023Zm1214.862,0a4.386,4.386,0,1,1,4.367,4.792A4.6,4.6,0,0,1,1346.811,133.023Zm-191.817,0a4.4,4.4,0,1,1,4.378,4.792A4.6,4.6,0,0,1,1154.994,133.023Zm-852.37,0a4.326,4.326,0,1,1,4.307,4.737A4.538,4.538,0,0,1,302.624,133.023Zm-85.07,0a4.148,4.148,0,1,1,4.129,4.542A4.35,4.35,0,0,1,217.554,133.023Zm-63.934,0a4.148,4.148,0,1,1,4.128,4.542A4.35,4.35,0,0,1,153.62,133.023Zm980.312,0a4.151,4.151,0,1,1,4.128,4.529A4.338,4.338,0,0,1,1133.932,133.023Zm-959,0a4.151,4.151,0,1,1,4.128,4.529A4.338,4.338,0,0,1,174.928,133.023Zm21.37,0a4.093,4.093,0,1,1,4.082,4.454A4.283,4.283,0,0,1,196.3,133.023Zm1023.17,0a3.854,3.854,0,1,1,3.833,4.2A4.04,4.04,0,0,1,1219.468,133.023Zm-42.626,0a3.859,3.859,0,1,1,3.844,4.2A4.049,4.049,0,0,1,1176.842,133.023Zm-937.619,0A3.791,3.791,0,1,1,243,137.174,3.976,3.976,0,0,1,239.223,133.023Zm1086.855,0a3.8,3.8,0,1,1,3.776,4.141A3.964,3.964,0,0,1,1326.078,133.023Zm-1044.244,0a3.8,3.8,0,1,1,3.787,4.141A3.965,3.965,0,0,1,281.834,133.023Zm-21.313,0a3.8,3.8,0,1,1,3.787,4.141A3.965,3.965,0,0,1,260.521,133.023Zm1001.686,0a3.739,3.739,0,1,1,3.72,4.066A3.908,3.908,0,0,1,1262.207,133.023Zm21.37,0a3.682,3.682,0,1,1,3.662,4A3.851,3.851,0,0,1,1283.577,133.023Zm-85.241,0a3.682,3.682,0,1,1,3.662,4A3.844,3.844,0,0,1,1198.337,133.023Zm106.61,0a3.62,3.62,0,1,1,3.605,3.941A3.777,3.777,0,0,1,1304.947,133.023Zm-63.814,0a3.5,3.5,0,1,1,3.48,3.815A3.666,3.666,0,0,1,1241.133,133.023ZM468.851,109.679c0-5.179,3.832-9.382,8.564-9.382s8.575,4.2,8.575,9.382-3.844,9.383-8.575,9.383S468.851,114.859,468.851,109.679Zm490.334,0c0-5.079,3.753-9.2,8.393-9.2s8.382,4.116,8.382,9.2-3.753,9.183-8.382,9.183S959.186,114.746,959.186,109.679Zm-21.143,0c0-4.979,3.685-8.994,8.223-8.994s8.211,4.015,8.211,8.994-3.685,9-8.211,9S938.043,114.646,938.043,109.679Zm42.683,0c0-4.941,3.662-8.932,8.154-8.932,4.515,0,8.166,3.991,8.166,8.932s-3.65,8.933-8.166,8.933C984.389,118.612,980.726,114.608,980.726,109.679Zm-63.8,0c0-4.866,3.583-8.807,8.03-8.807s8.041,3.941,8.041,8.807-3.594,8.808-8.041,8.808S916.924,114.533,916.924,109.679Zm-426.168,0c0-4.828,3.571-8.745,7.972-8.745s7.984,3.916,7.984,8.745-3.571,8.733-7.984,8.733S490.756,114.508,490.756,109.679Zm405.026,0c0-4.754,3.514-8.619,7.858-8.619s7.859,3.865,7.859,8.619-3.514,8.607-7.859,8.607S895.782,114.433,895.782,109.679Zm-447.357,0c0-4.641,3.435-8.419,7.677-8.419s7.688,3.778,7.688,8.419-3.445,8.42-7.688,8.42S448.425,114.321,448.425,109.679Zm426.578,0c0-4.441,3.275-8.031,7.324-8.031s7.324,3.59,7.324,8.031-3.276,8.019-7.324,8.019S875,114.108,875,109.679Zm127.922,0c0-4.4,3.264-7.969,7.268-7.969,4.027,0,7.279,3.565,7.279,7.969s-3.253,7.969-7.279,7.969C1006.19,117.649,1002.926,114.071,1002.926,109.679Zm-468.84,0c0-4.4,3.254-7.969,7.257-7.969,4.026,0,7.278,3.565,7.278,7.969s-3.253,7.969-7.278,7.969C537.34,117.649,534.086,114.071,534.086,109.679Zm-127.752,0c0-4.328,3.208-7.831,7.154-7.831s7.141,3.5,7.141,7.831-3.2,7.832-7.141,7.832S406.334,114,406.334,109.679Zm447.6,0c0-4.291,3.173-7.769,7.1-7.769s7.086,3.478,7.086,7.769-3.173,7.769-7.086,7.769S853.929,113.971,853.929,109.679Zm-340.86,0c0-4.215,3.116-7.644,6.971-7.644s6.972,3.428,6.972,7.644-3.117,7.632-6.972,7.632S513.069,113.9,513.069,109.679Zm-511.477,0c0-4.215,3.128-7.644,6.983-7.644s6.971,3.428,6.971,7.644-3.128,7.632-6.971,7.632S1.592,113.9,1.592,109.679Zm426.407,0c0-4.115,3.047-7.444,6.79-7.444s6.8,3.328,6.8,7.444-3.048,7.431-6.8,7.431S428,113.783,428,109.679Zm404.969,0c0-4.078,3.025-7.38,6.744-7.38s6.733,3.3,6.733,7.38-3.014,7.381-6.733,7.381S832.969,113.758,832.969,109.679Zm-277.046,0c0-4.078,3.014-7.38,6.733-7.38s6.744,3.3,6.744,7.38-3.013,7.381-6.744,7.381S555.923,113.758,555.923,109.679Zm469.033,0c0-3.978,2.934-7.181,6.55-7.181s6.563,3.2,6.563,7.181-2.946,7.181-6.563,7.181S1024.956,113.645,1024.956,109.679Zm-447.367,0c0-3.865,2.855-6.993,6.391-6.993s6.381,3.128,6.381,6.993-2.855,6.981-6.381,6.981S577.589,113.532,577.589,109.679Zm-554.092,0c0-3.865,2.867-6.993,6.381-6.993s6.391,3.128,6.391,6.993-2.866,6.981-6.391,6.981S23.5,113.532,23.5,109.679Zm21.729,0c0-3.627,2.672-6.567,5.97-6.567s5.969,2.939,5.969,6.567-2.672,6.567-5.969,6.567S45.225,113.3,45.225,109.677Zm1001.643,0c0-3.616,2.666-6.549,5.953-6.549s5.953,2.932,5.953,6.549-2.665,6.548-5.953,6.548S1046.868,113.294,1046.868,109.677Zm-234.439,0a5.99,5.99,0,1,1,5.971,6.531A6.275,6.275,0,0,1,812.429,109.679Zm-426.226,0a6,6,0,1,1,5.971,6.531A6.275,6.275,0,0,1,386.2,109.679Zm213.233,0a5.876,5.876,0,1,1,5.857,6.418A6.154,6.154,0,0,1,599.436,109.679Zm21.367,0a5.819,5.819,0,1,1,5.792,6.372A6.1,6.1,0,0,1,620.8,109.677Zm149.182,0a5.818,5.818,0,1,1,5.789,6.343A6.078,6.078,0,0,1,769.985,109.679Zm-21.313,0a5.818,5.818,0,1,1,5.8,6.343A6.079,6.079,0,0,1,748.672,109.679Zm-404.913,0a5.813,5.813,0,1,1,5.789,6.343A6.078,6.078,0,0,1,343.759,109.679Zm724.641,0a5.756,5.756,0,1,1,5.731,6.281A6.02,6.02,0,0,1,1068.4,109.679Zm-277.046,0a5.756,5.756,0,1,1,5.732,6.281A6.013,6.013,0,0,1,791.355,109.679Zm-63.928,0a5.756,5.756,0,1,1,5.732,6.281A6.014,6.014,0,0,1,727.427,109.679Zm-404.8,0a5.636,5.636,0,1,1,5.607,6.143A5.888,5.888,0,0,1,322.628,109.679Zm42.672,0a5.584,5.584,0,1,1,5.561,6.081A5.845,5.845,0,0,1,365.3,109.679Zm-298.347,0a5.578,5.578,0,1,1,5.55,6.081A5.837,5.837,0,0,1,66.953,109.679Zm1023.056,0a5.459,5.459,0,1,1,5.436,5.955A5.712,5.712,0,0,1,1090.009,109.679Zm-383.486,0a5.345,5.345,0,1,1,5.32,5.852A5.605,5.605,0,0,1,706.523,109.677Zm-21.2,0a5.224,5.224,0,1,1,5.208,5.692A5.46,5.46,0,0,1,685.325,109.679Zm-21.188,0a5.1,5.1,0,1,1,5.083,5.568A5.339,5.339,0,0,1,664.137,109.679Zm-575.405,0a5.1,5.1,0,1,1,5.084,5.568A5.34,5.34,0,0,1,88.732,109.679Zm554.216,0a4.984,4.984,0,1,1,4.959,5.43A5.219,5.219,0,0,1,642.948,109.679Zm703.328,0a4.923,4.923,0,1,1,4.9,5.38A5.153,5.153,0,0,1,1346.277,109.679Zm-1236.05,0a4.923,4.923,0,1,1,4.9,5.38A5.161,5.161,0,0,1,110.227,109.679Zm1001.676,0a4.87,4.87,0,1,1,4.845,5.3A5.086,5.086,0,0,1,1111.9,109.679Zm-809.825,0a4.865,4.865,0,1,1,4.856,5.3A5.088,5.088,0,0,1,302.078,109.679Zm-21.313,0a4.87,4.87,0,1,1,4.856,5.3A5.087,5.087,0,0,1,280.765,109.679Zm1023.056,0a4.745,4.745,0,1,1,4.731,5.18A4.973,4.973,0,0,1,1303.821,109.679Zm-1129.428,0a4.688,4.688,0,1,1,4.663,5.117A4.9,4.9,0,0,1,174.393,109.679Zm63.994,0a4.63,4.63,0,1,1,4.61,5.07A4.857,4.857,0,0,1,238.387,109.677Zm1086.872,0a4.63,4.63,0,1,1,4.594,5.042A4.842,4.842,0,0,1,1325.259,109.679Zm-170.492,0a4.63,4.63,0,1,1,4.606,5.042A4.852,4.852,0,0,1,1154.767,109.679Zm-21.313,0a4.63,4.63,0,1,1,4.606,5.042A4.852,4.852,0,0,1,1133.454,109.679Zm-1001.63,0a4.63,4.63,0,1,1,4.618,5.042A4.853,4.853,0,0,1,131.824,109.679Zm127.992,0a4.511,4.511,0,1,1,4.493,4.916A4.732,4.732,0,0,1,259.816,109.679Zm-63.939,0a4.511,4.511,0,1,1,4.5,4.916A4.734,4.734,0,0,1,195.877,109.679Zm1065.625,0a4.448,4.448,0,1,1,4.424,4.854A4.666,4.666,0,0,1,1261.5,109.679Zm-21.313,0a4.448,4.448,0,1,1,4.424,4.854A4.666,4.666,0,0,1,1240.189,109.679Zm-21.245,0a4.386,4.386,0,1,1,4.356,4.792A4.582,4.582,0,0,1,1218.945,109.679Zm-1065.568,0a4.391,4.391,0,1,1,4.367,4.792A4.591,4.591,0,0,1,153.376,109.679Zm64,0a4.326,4.326,0,1,1,4.307,4.737A4.537,4.537,0,0,1,217.377,109.677Zm958.987,0a4.334,4.334,0,1,1,4.322,4.729A4.536,4.536,0,0,1,1176.364,109.679Zm106.861,0a4.036,4.036,0,1,1,4.015,4.392A4.226,4.226,0,0,1,1283.225,109.679Zm-85.24,0a4.031,4.031,0,1,1,4.014,4.392A4.225,4.225,0,0,1,1197.985,109.679ZM980.317,86.335c0-5.192,3.832-9.382,8.563-9.382s8.575,4.191,8.575,9.382-3.832,9.4-8.575,9.4S980.317,91.526,980.317,86.335Zm-532.6,0c0-5.079,3.753-9.2,8.382-9.2s8.393,4.116,8.393,9.2-3.753,9.2-8.393,9.2S447.72,91.415,447.72,86.335Zm21.358,0c0-5.041,3.742-9.132,8.337-9.132s8.337,4.091,8.337,9.132-3.73,9.12-8.337,9.12S469.078,91.377,469.078,86.335Zm490.279,0c0-4.979,3.685-8.994,8.222-8.994s8.211,4.015,8.211,8.994-3.685,9-8.211,9S959.357,91.3,959.357,86.335Zm42.682,0c0-4.941,3.662-8.932,8.154-8.932,4.515,0,8.167,3.991,8.167,8.932s-3.651,8.933-8.167,8.933C1005.7,95.268,1002.039,91.264,1002.039,86.335Zm-63.814,0c0-4.866,3.594-8.794,8.041-8.794s8.029,3.928,8.029,8.794-3.594,8.807-8.029,8.807S938.226,91.189,938.226,86.335Zm-21.131,0c0-4.754,3.514-8.619,7.859-8.619s7.859,3.865,7.859,8.619-3.515,8.607-7.859,8.607S917.095,91.077,917.095,86.335Zm-490.164,0c0-4.754,3.525-8.619,7.859-8.619s7.87,3.865,7.87,8.619-3.525,8.607-7.87,8.607S426.93,91.077,426.93,86.335Zm597.309,0c0-4.4,3.263-7.957,7.267-7.957,4.027,0,7.268,3.553,7.268,7.957s-3.241,7.957-7.268,7.957C1027.5,94.292,1024.24,90.727,1024.24,86.335Zm-618.019,0c0-4.4,3.253-7.957,7.267-7.957s7.268,3.553,7.268,7.957-3.253,7.957-7.268,7.957S406.22,90.727,406.22,86.335Zm-404.913,0c0-4.4,3.253-7.957,7.268-7.957s7.267,3.553,7.267,7.957-3.253,7.957-7.267,7.957S1.308,90.727,1.308,86.335Zm895.179,0c0-4.328,3.208-7.831,7.154-7.831s7.153,3.5,7.153,7.831-3.2,7.832-7.153,7.832S896.486,90.651,896.486,86.335Zm-873.695,0c0-4.291,3.173-7.769,7.086-7.769s7.1,3.478,7.1,7.769-3.173,7.77-7.1,7.77S22.792,90.614,22.792,86.335Zm490.278,0c0-4.215,3.116-7.644,6.971-7.644s6.972,3.428,6.972,7.644-3.117,7.632-6.972,7.632S513.069,90.538,513.069,86.335Zm532.835,0c0-4.178,3.093-7.569,6.916-7.569s6.926,3.391,6.926,7.569-3.105,7.57-6.926,7.57S1045.9,90.527,1045.9,86.335Zm-554.091,0c0-4.178,3.093-7.569,6.915-7.569s6.915,3.391,6.915,7.569-3.093,7.57-6.915,7.57S491.813,90.527,491.813,86.335Zm-447.538,0c0-4.178,3.093-7.569,6.915-7.569S58.1,82.157,58.1,86.335,55.012,93.9,51.19,93.9,44.276,90.527,44.276,86.335Zm831.319,0c0-4.078,3.025-7.38,6.733-7.38s6.744,3.3,6.744,7.38-3.025,7.369-6.744,7.369S875.595,90.414,875.595,86.335Zm-489.982,0c0-3.985,2.937-7.214,6.559-7.214s6.558,3.229,6.558,7.214-2.936,7.215-6.558,7.215S385.613,90.315,385.613,86.33Zm682.014,0c0-3.94,2.923-7.131,6.505-7.131s6.494,3.191,6.494,7.131-2.9,7.119-6.494,7.119S1067.627,90.263,1067.627,86.335Zm-212.754,0c0-3.715,2.752-6.743,6.152-6.743s6.142,3.027,6.142,6.743-2.752,6.731-6.142,6.731S854.873,90.05,854.873,86.335Zm-21.188,0c0-3.64,2.695-6.605,6.027-6.605s6.027,2.965,6.027,6.605a6.053,6.053,0,1,1-12.055,0Zm-468.851,0c0-3.64,2.7-6.605,6.027-6.605s6.028,2.965,6.028,6.605a6.053,6.053,0,1,1-12.056,0Zm724.64,0a6,6,0,1,1,5.971,6.531A6.275,6.275,0,0,1,1089.474,86.335Zm-1001.629,0a5.995,5.995,0,1,1,5.971,6.531A6.275,6.275,0,0,1,87.845,86.335Zm-21.314,0A6,6,0,1,1,72.5,92.866,6.275,6.275,0,0,1,66.532,86.335Zm468.965,0a5.876,5.876,0,1,1,5.846,6.405A6.15,6.15,0,0,1,535.5,86.335Zm-191.794,0a5.87,5.87,0,1,1,5.846,6.405A6.142,6.142,0,0,1,343.7,86.335Zm234.477,0a5.818,5.818,0,1,1,5.8,6.343A6.087,6.087,0,0,1,578.18,86.335Zm-21.313,0a5.818,5.818,0,1,1,5.789,6.343A6.085,6.085,0,0,1,556.867,86.335Zm-234.42,0a5.813,5.813,0,1,1,5.789,6.343A6.085,6.085,0,0,1,322.447,86.335Zm490.221,0a5.756,5.756,0,1,1,5.732,6.281A6.013,6.013,0,0,1,812.668,86.335ZM280,86.335a5.637,5.637,0,1,1,5.619,6.156A5.9,5.9,0,0,1,280,86.335Zm-149.179,0a5.642,5.642,0,1,1,5.619,6.156A5.9,5.9,0,0,1,130.823,86.335Zm980.374,0a5.578,5.578,0,1,1,5.55,6.081A5.844,5.844,0,0,1,1111.2,86.335Zm234.545,0a5.459,5.459,0,1,1,5.436,5.955A5.712,5.712,0,0,1,1345.742,86.335Zm-1044.2,0a5.4,5.4,0,1,1,5.391,5.881A5.657,5.657,0,0,1,301.543,86.335Zm-191.737,0a5.344,5.344,0,1,1,5.323,5.817A5.6,5.6,0,0,1,109.806,86.335Zm682.083,0a5.22,5.22,0,1,1,5.2,5.705A5.467,5.467,0,0,1,791.889,86.335Zm-63.87,0a5.162,5.162,0,1,1,5.14,5.63A5.414,5.414,0,0,1,728.019,86.335Zm404.969,0a5.1,5.1,0,1,1,5.072,5.568A5.33,5.33,0,0,1,1132.988,86.335Zm-362.3,0a5.1,5.1,0,1,1,5.084,5.568A5.347,5.347,0,0,1,770.69,86.335Zm-63.939,0a5.1,5.1,0,1,1,5.095,5.568A5.348,5.348,0,0,1,706.751,86.335Zm-42.614,0A5.1,5.1,0,1,1,669.22,91.9,5.339,5.339,0,0,1,664.137,86.335Zm21.426,0a4.984,4.984,0,1,1,4.97,5.43A5.211,5.211,0,0,1,685.563,86.335Zm-42.615,0a4.984,4.984,0,1,1,4.959,5.43A5.211,5.211,0,0,1,642.948,86.335Zm511.53,0a4.92,4.92,0,1,1,4.9,5.388A5.16,5.16,0,0,1,1154.479,86.33Zm149.171,0a4.922,4.922,0,1,1,4.9,5.367A5.153,5.153,0,0,1,1303.65,86.335Zm-21.312,0a4.927,4.927,0,1,1,4.9,5.367A5.153,5.153,0,0,1,1282.338,86.335Zm-21.313,0a4.927,4.927,0,1,1,4.9,5.367A5.152,5.152,0,0,1,1261.025,86.335Zm-42.615,0A4.922,4.922,0,1,1,1223.3,91.7,5.152,5.152,0,0,1,1218.41,86.335Zm-21.313,0A4.922,4.922,0,1,1,1202,91.7,5.153,5.153,0,0,1,1197.1,86.335Zm-21.313,0a4.922,4.922,0,1,1,4.9,5.367A5.153,5.153,0,0,1,1175.784,86.335Zm-426.226,0a4.922,4.922,0,1,1,4.913,5.367A5.155,5.155,0,0,1,749.559,86.335Zm-127.867,0a4.927,4.927,0,1,1,4.9,5.367A5.153,5.153,0,0,1,621.692,86.335Zm-21.313,0a4.927,4.927,0,1,1,4.914,5.367A5.155,5.155,0,0,1,600.379,86.335Zm-447.538,0a4.927,4.927,0,1,1,4.9,5.367A5.153,5.153,0,0,1,152.842,86.335Zm1172.179,0a4.865,4.865,0,1,1,4.833,5.3A5.084,5.084,0,0,1,1325.021,86.335Zm-1086.871,0a4.865,4.865,0,1,1,4.846,5.3A5.086,5.086,0,0,1,238.15,86.335Zm21.427,0a4.751,4.751,0,1,1,4.731,5.18A4.977,4.977,0,0,1,259.577,86.335Zm-63.939,0a4.75,4.75,0,1,1,4.742,5.18A4.986,4.986,0,0,1,195.638,86.335Zm21.37,0a4.693,4.693,0,1,1,4.675,5.117A4.909,4.909,0,0,1,217.008,86.335Zm-42.615,0a4.688,4.688,0,1,1,4.663,5.117A4.9,4.9,0,0,1,174.393,86.335Zm1065.8,0a4.448,4.448,0,1,1,4.424,4.854A4.663,4.663,0,0,1,1240.189,86.335ZM1001.63,62.991c0-5.192,3.833-9.4,8.564-9.4s8.575,4.2,8.575,9.4-3.832,9.383-8.575,9.383S1001.63,68.17,1001.63,62.991Zm-575.279,0c0-5.116,3.775-9.257,8.438-9.257s8.45,4.141,8.45,9.257-3.775,9.257-8.45,9.257S426.351,68.1,426.351,62.991Zm554.319,0c0-4.966,3.685-8.994,8.211-8.994s8.223,4.028,8.223,8.994-3.685,9-8.223,9S980.67,67.958,980.67,62.991Zm-532.779,0c0-4.966,3.674-8.994,8.212-8.994s8.222,4.028,8.222,8.994-3.685,9-8.222,9S447.89,67.958,447.89,62.991Zm-42.557,0c0-4.928,3.65-8.932,8.155-8.932s8.154,4,8.154,8.932-3.65,8.933-8.154,8.933S405.333,67.92,405.333,62.991Zm-404.924,0c0-4.928,3.662-8.932,8.166-8.932s8.155,4,8.155,8.932-3.651,8.933-8.155,8.933S.409,67.92.409,62.991Zm1023.068,0c0-4.866,3.582-8.807,8.029-8.807s8.041,3.941,8.041,8.807-3.594,8.8-8.041,8.8S1023.477,67.858,1023.477,62.991Zm-63.939,0c0-4.866,3.594-8.807,8.041-8.807s8.029,3.941,8.029,8.807-3.594,8.8-8.029,8.8S959.539,67.858,959.539,62.991Zm-937.634,0c0-4.816,3.571-8.745,7.973-8.745s7.983,3.928,7.983,8.745-3.57,8.745-7.983,8.745S21.9,67.82,21.9,62.991Zm916.5,0c0-4.754,3.514-8.607,7.859-8.607s7.859,3.853,7.859,8.607-3.514,8.607-7.859,8.607S938.408,67.745,938.408,62.991Zm107.133,0c0-4.391,3.264-7.957,7.278-7.957s7.268,3.566,7.268,7.957-3.253,7.957-7.268,7.957S1045.541,67.4,1045.541,62.991Zm-681.946,0c0-4.391,3.253-7.957,7.267-7.957s7.267,3.566,7.267,7.957-3.253,7.957-7.267,7.957S363.595,67.4,363.595,62.991Zm-21.313,0c0-4.391,3.253-7.957,7.267-7.957s7.267,3.566,7.267,7.957-3.253,7.957-7.267,7.957S342.282,67.4,342.282,62.991Zm-277.046,0c0-4.391,3.253-7.957,7.267-7.957s7.268,3.566,7.268,7.957-3.254,7.957-7.268,7.957S65.236,67.4,65.236,62.991Zm-21.313,0c0-4.391,3.253-7.957,7.268-7.957s7.267,3.566,7.267,7.957S55.2,70.947,51.19,70.947,43.923,67.4,43.923,62.991Zm1023.056,0c0-4.315,3.2-7.831,7.153-7.831s7.154,3.515,7.154,7.831-3.208,7.832-7.154,7.832S1066.979,67.32,1066.979,62.991Zm-149.111,0c0-4.291,3.162-7.769,7.086-7.769s7.1,3.478,7.1,7.769-3.173,7.757-7.1,7.757S917.868,67.282,917.868,62.991Zm-532.79,0c0-4.291,3.185-7.769,7.1-7.769s7.086,3.478,7.086,7.769-3.173,7.757-7.086,7.757S385.078,67.282,385.078,62.991Zm703.454,0c0-4.191,3.093-7.569,6.915-7.569s6.915,3.378,6.915,7.569-3.105,7.57-6.915,7.57S1088.531,67.169,1088.531,62.991Zm-617.906,0c0-4.115,3.037-7.443,6.79-7.443s6.8,3.327,6.8,7.443-3.048,7.444-6.8,7.444S470.625,67.094,470.625,62.991Zm426.282,0c0-4.078,3.013-7.369,6.733-7.369s6.744,3.291,6.744,7.369-3.025,7.369-6.744,7.369S896.908,67.069,896.908,62.991Zm-404.56,0c0-3.853,2.855-6.993,6.38-6.993s6.38,3.14,6.38,6.993-2.854,6.993-6.38,6.993S492.348,66.857,492.348,62.991Zm383.838,0c0-3.727,2.752-6.73,6.142-6.73a6.453,6.453,0,0,1,6.152,6.73c0,3.715-2.752,6.731-6.152,6.731S876.186,66.706,876.186,62.991Zm-21.313,0a6.453,6.453,0,0,1,6.152-6.73c3.389,0,6.142,3,6.142,6.73s-2.752,6.731-6.142,6.731S854.873,66.706,854.873,62.991Zm490.278,0a6.053,6.053,0,1,1,12.055,0c0,3.641-2.706,6.605-6.027,6.605S1345.151,66.632,1345.151,62.991Zm-1022.943,0a6.053,6.053,0,1,1,12.056,0c0,3.641-2.7,6.605-6.028,6.605S322.208,66.632,322.208,62.991Zm788.579,0c0-3.616,2.673-6.543,5.96-6.543a6.569,6.569,0,0,1,0,13.086C1113.46,69.534,1110.787,66.594,1110.787,62.991Zm-596.717,0a6,6,0,1,1,11.941,0c0,3.6-2.672,6.543-5.971,6.543S514.07,66.594,514.07,62.991Zm-213.107,0a6.275,6.275,0,0,1,5.971-6.543c3.287,0,5.959,2.927,5.959,6.543s-2.672,6.543-5.959,6.543S300.964,66.594,300.964,62.991Zm-42.627,0a5.991,5.991,0,1,1,11.93,0c0,3.6-2.661,6.543-5.959,6.543A6.283,6.283,0,0,1,258.337,62.991Zm-127.866,0a6.275,6.275,0,0,1,5.971-6.543c3.287,0,5.96,2.927,5.96,6.543s-2.673,6.543-5.96,6.543S130.471,66.594,130.471,62.991Zm-21.313,0a6,6,0,1,1,11.941,0c0,3.6-2.673,6.543-5.971,6.543S109.158,66.594,109.158,62.991Zm-21.313,0a6,6,0,1,1,11.941,0c0,3.6-2.673,6.543-5.971,6.543S87.845,66.594,87.845,62.991Zm1129.621,0A5.87,5.87,0,1,1,1223.3,69.4,6.141,6.141,0,0,1,1217.466,62.991Zm-1001.63,0a5.875,5.875,0,1,1,5.846,6.405A6.143,6.143,0,0,1,215.836,62.991Zm21.37,0A5.813,5.813,0,1,1,243,69.334,6.085,6.085,0,0,1,237.207,62.991Zm-85.253,0a5.818,5.818,0,1,1,5.789,6.343A6.085,6.085,0,0,1,151.954,62.991Zm1172.179,0a5.755,5.755,0,1,1,5.721,6.268A6.028,6.028,0,0,1,1324.133,62.991Zm-21.3,0a5.75,5.75,0,1,1,5.72,6.268A6.02,6.02,0,0,1,1302.832,62.991Zm-21.313,0a5.75,5.75,0,1,1,5.72,6.268A6.02,6.02,0,0,1,1281.519,62.991Zm-42.637,0a5.755,5.755,0,1,1,5.732,6.268A6.029,6.029,0,0,1,1238.882,62.991Zm-85.241,0a5.755,5.755,0,1,1,5.732,6.268A6.029,6.029,0,0,1,1153.641,62.991Zm-319.66,0a5.755,5.755,0,1,1,5.732,6.268A6.029,6.029,0,0,1,833.981,62.991Zm-298.359,0a5.755,5.755,0,1,1,5.721,6.268A6.028,6.028,0,0,1,535.622,62.991ZM280,62.991a5.637,5.637,0,1,1,5.619,6.156A5.91,5.91,0,0,1,280,62.991Zm852.507,0a5.579,5.579,0,1,1,5.55,6.092A5.844,5.844,0,0,1,1132.51,62.991Zm-959,0a5.579,5.579,0,1,1,5.549,6.092A5.837,5.837,0,0,1,173.507,62.991Zm1086.995,0a5.459,5.459,0,1,1,5.425,5.955A5.711,5.711,0,0,1,1260.5,62.991Zm-85.252,0a5.459,5.459,0,1,1,5.436,5.955A5.712,5.712,0,0,1,1175.25,62.991Zm-362.173,0a5.344,5.344,0,1,1,5.323,5.817A5.592,5.592,0,0,1,813.077,62.991Zm-618.019,0a5.338,5.338,0,1,1,5.323,5.817A5.592,5.592,0,0,1,195.058,62.991Zm1001.732,0A5.224,5.224,0,1,1,1202,68.683,5.472,5.472,0,0,1,1196.79,62.991ZM792,62.991a5.105,5.105,0,1,1,5.084,5.568A5.34,5.34,0,0,1,792,62.991Zm-21.131,0a4.922,4.922,0,1,1,4.9,5.367A5.143,5.143,0,0,1,770.872,62.991Zm-21.313,0a4.922,4.922,0,1,1,4.913,5.367A5.151,5.151,0,0,1,749.559,62.991Zm-149.18,0a4.927,4.927,0,1,1,4.914,5.367A5.151,5.151,0,0,1,600.379,62.991Zm-21.313,0a4.927,4.927,0,1,1,4.913,5.367A5.151,5.151,0,0,1,579.066,62.991Zm-21.313,0a4.927,4.927,0,1,1,4.9,5.367A5.15,5.15,0,0,1,557.753,62.991Zm128.288,0a4.505,4.505,0,1,1,4.492,4.917A4.713,4.713,0,0,1,686.041,62.991Zm-21.313,0a4.511,4.511,0,1,1,4.492,4.917A4.72,4.72,0,0,1,664.728,62.991Zm64.348,0a4.094,4.094,0,1,1,4.082,4.467A4.283,4.283,0,0,1,729.077,62.991Zm-21.313,0a4.094,4.094,0,1,1,4.082,4.467A4.283,4.283,0,0,1,707.764,62.991Zm-85.241,0a4.089,4.089,0,1,1,4.072,4.467A4.282,4.282,0,0,1,622.523,62.991Zm21.37,0a4.032,4.032,0,1,1,4.015,4.4A4.226,4.226,0,0,1,643.892,62.991Zm379.05-23.344c0-5.179,3.833-9.382,8.563-9.382s8.575,4.2,8.575,9.382-3.844,9.383-8.575,9.383S1022.943,44.826,1022.943,39.646Zm-618.031,0c0-5.179,3.845-9.382,8.576-9.382s8.563,4.2,8.563,9.382-3.833,9.383-8.563,9.383S404.912,44.826,404.912,39.646ZM0,39.646c0-5.179,3.844-9.382,8.575-9.382s8.564,4.2,8.564,9.382S13.307,49.03,8.575,49.03,0,44.826,0,39.646Zm1044.665,0c0-4.928,3.65-8.932,8.154-8.932s8.155,4,8.155,8.932-3.65,8.933-8.155,8.933S1044.665,44.576,1044.665,39.646Zm-42.626,0c0-4.928,3.662-8.932,8.154-8.932,4.515,0,8.167,4,8.167,8.932s-3.651,8.933-8.167,8.933C1005.7,48.579,1002.039,44.576,1002.039,39.646Zm-21.313,0c0-4.928,3.662-8.932,8.154-8.932,4.515,0,8.166,4,8.166,8.932s-3.65,8.933-8.166,8.933C984.389,48.579,980.726,44.576,980.726,39.646Zm-554.081,0c0-4.928,3.651-8.932,8.143-8.932,4.515,0,8.166,4,8.166,8.932s-3.65,8.933-8.166,8.933C430.3,48.579,426.646,44.576,426.646,39.646Zm-42.626,0c0-4.928,3.65-8.932,8.154-8.932s8.155,4,8.155,8.932-3.65,8.933-8.155,8.933S384.02,44.576,384.02,39.646Zm-340.973,0c0-4.928,3.64-8.932,8.143-8.932s8.166,4,8.166,8.932-3.662,8.933-8.166,8.933S43.047,44.576,43.047,39.646Zm-21.325,0c0-4.928,3.65-8.932,8.155-8.932s8.166,4,8.166,8.932-3.651,8.933-8.166,8.933S21.722,44.576,21.722,39.646Zm938,0c0-4.754,3.514-8.607,7.859-8.607s7.847,3.853,7.847,8.607-3.5,8.62-7.847,8.62S959.72,44.4,959.72,39.646Zm-596.66,0c0-4.716,3.491-8.544,7.8-8.544s7.8,3.827,7.8,8.544-3.491,8.545-7.8,8.545S363.06,44.363,363.06,39.646Zm85.6,0c0-4.5,3.332-8.157,7.438-8.157s7.449,3.653,7.449,8.157-3.333,8.169-7.449,8.169S448.664,44.163,448.664,39.646Zm618.189,0c0-4.391,3.264-7.969,7.278-7.969s7.267,3.578,7.267,7.969-3.253,7.957-7.267,7.957S1066.854,44.051,1066.854,39.646Zm-724.572,0c0-4.391,3.253-7.969,7.267-7.969s7.267,3.578,7.267,7.969-3.253,7.957-7.267,7.957S342.282,44.051,342.282,39.646Zm-21.3,0c0-4.391,3.242-7.969,7.256-7.969s7.267,3.578,7.267,7.969S332.25,47.6,328.235,47.6,320.98,44.051,320.98,39.646Zm-21.325,0c0-4.391,3.264-7.969,7.279-7.969s7.267,3.578,7.267,7.969-3.253,7.957-7.267,7.957S299.655,44.051,299.655,39.646Zm-234.419,0c0-4.391,3.253-7.969,7.267-7.969s7.268,3.578,7.268,7.969S76.517,47.6,72.5,47.6,65.236,44.051,65.236,39.646Zm1278.8,0c0-4.328,3.2-7.831,7.142-7.831s7.142,3.5,7.142,7.831-3.2,7.832-7.142,7.832S1344.036,43.976,1344.036,39.646Zm-255.687,0c0-4.291,3.173-7.769,7.1-7.769s7.085,3.478,7.085,7.769-3.172,7.77-7.085,7.77S1088.348,43.938,1088.348,39.646Zm-149.179,0c0-4.291,3.173-7.769,7.1-7.769s7.085,3.478,7.085,7.769-3.172,7.77-7.085,7.77S939.169,43.938,939.169,39.646Zm-852.449,0c0-4.291,3.184-7.769,7.1-7.769s7.085,3.478,7.085,7.769-3.162,7.77-7.085,7.77S86.719,43.938,86.719,39.646Zm21.495,0c0-4.178,3.093-7.569,6.915-7.569s6.915,3.391,6.915,7.569-3.093,7.581-6.915,7.581S108.214,43.825,108.214,39.646Zm1001.743,0c0-4.1,3.037-7.443,6.79-7.443s6.8,3.34,6.8,7.443-3.048,7.444-6.8,7.444S1109.957,43.75,1109.957,39.646Zm213.175,0c0-4.078,3.014-7.38,6.721-7.38,3.742,0,6.745,3.3,6.745,7.38s-3,7.381-6.745,7.381C1326.146,47.028,1323.132,43.712,1323.132,39.646Zm-404.923,0c0-4.078,3.025-7.38,6.745-7.38s6.744,3.3,6.744,7.38-3.025,7.381-6.744,7.381S918.209,43.712,918.209,39.646Zm-447.527,0c0-4.078,3.014-7.38,6.733-7.38s6.745,3.3,6.745,7.38-3.014,7.381-6.745,7.381S470.682,43.712,470.682,39.646Zm660.827,0c0-3.965,2.935-7.193,6.551-7.193s6.563,3.228,6.563,7.193-2.935,7.181-6.563,7.181S1131.509,43.612,1131.509,39.646Zm21.552,0c0-3.827,2.821-6.93,6.312-6.93s6.323,3.1,6.323,6.93-2.832,6.931-6.323,6.931S1153.061,43.475,1153.061,39.646Zm-873.775,0c0-3.827,2.832-6.93,6.335-6.93s6.323,3.1,6.323,6.93-2.832,6.931-6.323,6.931S279.286,43.475,279.286,39.646Zm618.213,0c0-3.715,2.752-6.73,6.142-6.73a6.46,6.46,0,0,1,6.152,6.73c0,3.715-2.752,6.731-6.152,6.731S897.5,43.362,897.5,39.646Zm-724.584,0c0-3.715,2.752-6.73,6.141-6.73a6.46,6.46,0,0,1,6.153,6.73,6.461,6.461,0,0,1-6.153,6.731C175.667,46.377,172.915,43.362,172.915,39.646Zm-21.313,0c0-3.715,2.752-6.73,6.141-6.73a6.46,6.46,0,0,1,6.153,6.73,6.461,6.461,0,0,1-6.153,6.731C154.355,46.377,151.6,43.362,151.6,39.646Zm-21.314,0c0-3.715,2.764-6.73,6.153-6.73s6.142,3.015,6.142,6.73-2.752,6.731-6.142,6.731S130.289,43.362,130.289,39.646Zm1150.991,0a5.991,5.991,0,1,1,11.93,0c0,3.6-2.673,6.543-5.971,6.543S1281.28,43.25,1281.28,39.646Zm-85.252,0a6,6,0,1,1,11.942,0c0,3.6-2.685,6.543-5.971,6.543S1196.028,43.25,1196.028,39.646Zm-21.3,0a5.991,5.991,0,1,1,11.93,0c0,3.6-2.672,6.543-5.971,6.543S1174.726,43.25,1174.726,39.646Zm-298.37,0a6,6,0,1,1,11.942,0c0,3.6-2.673,6.543-5.971,6.543S876.356,43.25,876.356,39.646Zm-618.019,0a5.991,5.991,0,1,1,11.93,0c0,3.6-2.661,6.543-5.959,6.543A6.283,6.283,0,0,1,258.337,39.646Zm-21.313,0a6,6,0,1,1,11.942,0c0,3.6-2.673,6.543-5.971,6.543A6.283,6.283,0,0,1,237.024,39.646Zm-21.313,0a6,6,0,1,1,11.942,0c0,3.6-2.673,6.543-5.971,6.543A6.283,6.283,0,0,1,215.711,39.646Zm-21.3,0a6.267,6.267,0,0,1,5.971-6.543c3.287,0,5.96,2.927,5.96,6.543s-2.673,6.543-5.96,6.543A6.275,6.275,0,0,1,194.41,39.646Zm1108.3,0a5.871,5.871,0,1,1,11.691,0,5.87,5.87,0,1,1-11.691,0Zm-63.928,0c0-3.54,2.6-6.417,5.835-6.417a6.155,6.155,0,0,1,5.857,6.417,5.87,5.87,0,1,1-11.692,0Zm-21.313,0c0-3.54,2.616-6.417,5.835-6.417a6.155,6.155,0,0,1,5.857,6.417,5.87,5.87,0,1,1-11.692,0Zm42.682,0a5.808,5.808,0,1,1,11.567,0,5.808,5.808,0,1,1-11.567,0Zm-404.924,0a5.818,5.818,0,1,1,11.589,0,5.818,5.818,0,1,1-11.589,0ZM493,39.646a5.756,5.756,0,1,1,11.464,0,5.756,5.756,0,1,1-11.464,0Zm43.035,0a5.345,5.345,0,1,1,10.645,0,5.345,5.345,0,1,1-10.645,0Zm-21.131,0a5.162,5.162,0,1,1,10.282,0,5.161,5.161,0,1,1-10.282,0Zm298.416,0a5.105,5.105,0,1,1,10.168,0,5.105,5.105,0,1,1-10.168,0Zm21.484,0a4.923,4.923,0,1,1,9.8,0,4.922,4.922,0,1,1-9.8,0Zm-42.615,0a4.923,4.923,0,1,1,9.8,0,4.922,4.922,0,1,1-9.8,0Zm-234.135,0a4.631,4.631,0,1,1,9.223,0,4.631,4.631,0,1,1-9.223,0Zm21.551,0a4.391,4.391,0,1,1,4.378,4.792A4.6,4.6,0,0,1,579.6,39.646Zm191.988,0a4.208,4.208,0,1,1,4.185,4.592A4.413,4.413,0,0,1,771.589,39.646Zm-21.211,0a4.1,4.1,0,1,1,4.094,4.467A4.293,4.293,0,0,1,750.378,39.646Zm-21.245,0a4.032,4.032,0,1,1,4.026,4.4A4.219,4.219,0,0,1,729.133,39.646Zm-21.313,0a4.037,4.037,0,1,1,4.026,4.4A4.219,4.219,0,0,1,707.82,39.646Zm-21.3,0a4.032,4.032,0,1,1,4.015,4.4A4.21,4.21,0,0,1,686.518,39.646Zm-21.313,0a4.032,4.032,0,1,1,4.015,4.4A4.218,4.218,0,0,1,665.205,39.646Zm-42.626,0a4.037,4.037,0,1,1,4.015,4.4A4.218,4.218,0,0,1,622.58,39.646Zm-21.313,0a4.037,4.037,0,1,1,4.027,4.4A4.219,4.219,0,0,1,601.267,39.646Zm42.74,0a3.916,3.916,0,1,1,3.9,4.266A4.1,4.1,0,0,1,644.007,39.646ZM1044.244,16.3c0-5.192,3.845-9.382,8.575-9.382s8.575,4.191,8.575,9.382-3.844,9.383-8.575,9.383S1044.244,21.482,1044.244,16.3ZM42.626,16.3c0-5.192,3.833-9.382,8.564-9.382s8.575,4.191,8.575,9.382-3.845,9.383-8.575,9.383S42.626,21.482,42.626,16.3Zm-21.313,0c0-5.192,3.833-9.382,8.564-9.382s8.575,4.191,8.575,9.382-3.833,9.383-8.575,9.383S21.313,21.482,21.313,16.3Zm362.469,0c0-5.079,3.764-9.194,8.393-9.194s8.393,4.115,8.393,9.194-3.764,9.2-8.393,9.2S383.782,21.382,383.782,16.3Zm-21.313,0c0-5.079,3.764-9.194,8.393-9.194s8.393,4.115,8.393,9.194-3.764,9.2-8.393,9.2S362.469,21.382,362.469,16.3Zm703.509,0c0-4.928,3.65-8.932,8.154-8.932s8.155,4,8.155,8.932-3.65,8.933-8.155,8.933S1065.978,21.244,1065.978,16.3Zm-42.626,0c0-4.928,3.662-8.932,8.154-8.932,4.515,0,8.155,4,8.155,8.932s-3.64,8.933-8.155,8.933C1027.014,25.235,1023.352,21.244,1023.352,16.3Zm-21.313,0c0-4.928,3.662-8.932,8.154-8.932,4.515,0,8.167,4,8.167,8.932s-3.651,8.933-8.167,8.933C1005.7,25.235,1002.039,21.244,1002.039,16.3Zm-660.645,0c0-4.928,3.65-8.932,8.154-8.932s8.155,4,8.155,8.932-3.651,8.933-8.155,8.933S341.394,21.244,341.394,16.3Zm-277.046,0c0-4.928,3.651-8.932,8.155-8.932s8.154,4,8.154,8.932-3.65,8.933-8.154,8.933S64.348,21.244,64.348,16.3ZM.409,16.3c0-4.928,3.662-8.932,8.166-8.932s8.155,4,8.155,8.932-3.651,8.933-8.155,8.933S.409,21.244.409,16.3Zm1342.728,0c0-4.866,3.605-8.807,8.041-8.807s8.041,3.941,8.041,8.807-3.605,8.808-8.041,8.808S1343.138,21.169,1343.138,16.3Zm-255.676,0c0-4.828,3.571-8.732,7.984-8.732s7.972,3.9,7.972,8.732-3.571,8.745-7.972,8.745S1087.462,21.132,1087.462,16.3Zm-767.2,0c0-4.828,3.571-8.732,7.972-8.732s7.984,3.9,7.984,8.732-3.571,8.745-7.984,8.745S320.263,21.132,320.263,16.3Zm660.77,0c0-4.754,3.515-8.607,7.847-8.607s7.859,3.853,7.859,8.607-3.515,8.607-7.859,8.607S981.033,21.056,981.033,16.3Zm-554.1,0c0-4.754,3.525-8.607,7.859-8.607s7.87,3.853,7.87,8.607-3.525,8.607-7.87,8.607S426.93,21.056,426.93,16.3Zm-21.3,0c0-4.754,3.514-8.607,7.859-8.607s7.859,3.853,7.859,8.607-3.514,8.607-7.859,8.607S405.629,21.056,405.629,16.3Zm916.912,0c0-4.428,3.275-8.031,7.313-8.031,4.061,0,7.336,3.6,7.336,8.031s-3.275,8.02-7.336,8.02C1325.816,24.322,1322.541,20.732,1322.541,16.3Zm-213.106,0c0-4.428,3.275-8.031,7.313-8.031,4.06,0,7.336,3.6,7.336,8.031s-3.276,8.02-7.336,8.02C1112.71,24.322,1109.435,20.732,1109.435,16.3ZM299.6,16.3c0-4.428,3.287-8.031,7.336-8.031s7.324,3.6,7.324,8.031-3.287,8.02-7.324,8.02S299.6,20.732,299.6,16.3Zm1001.687,0c0-4.4,3.253-7.957,7.267-7.957s7.267,3.553,7.267,7.957-3.253,7.957-7.267,7.957S1301.285,20.694,1301.285,16.3Zm-21.313,0c0-4.4,3.253-7.957,7.268-7.957s7.267,3.553,7.267,7.957-3.253,7.957-7.267,7.957S1279.972,20.694,1279.972,16.3Zm-1001.63,0c0-4.4,3.264-7.957,7.279-7.957s7.267,3.553,7.267,7.957-3.254,7.957-7.267,7.957S278.342,20.694,278.342,16.3Zm-21.3,0c0-4.4,3.253-7.957,7.268-7.957s7.267,3.553,7.267,7.957-3.254,7.957-7.267,7.957S257.041,20.694,257.041,16.3Zm-21.313,0c0-4.4,3.253-7.957,7.268-7.957s7.267,3.553,7.267,7.957S247.01,24.259,243,24.259,235.728,20.694,235.728,16.3Zm-106.554,0c0-4.4,3.253-7.957,7.267-7.957s7.268,3.553,7.268,7.957-3.253,7.957-7.268,7.957S129.174,20.694,129.174,16.3Zm-21.313,0c0-4.4,3.253-7.957,7.267-7.957S122.4,11.9,122.4,16.3s-3.253,7.957-7.268,7.957S107.861,20.694,107.861,16.3Zm-21.313,0c0-4.4,3.253-7.957,7.268-7.957s7.268,3.553,7.268,7.957-3.253,7.957-7.268,7.957S86.549,20.694,86.549,16.3Zm1172.224,0c0-4.328,3.218-7.831,7.154-7.831,3.957,0,7.153,3.5,7.153,7.831s-3.2,7.832-7.153,7.832C1261.991,24.134,1258.772,20.632,1258.772,16.3Zm-298.347,0c0-4.328,3.2-7.831,7.154-7.831s7.142,3.5,7.142,7.831-3.2,7.832-7.142,7.832S960.425,20.632,960.425,16.3Zm-745.885,0c0-4.328,3.2-7.831,7.142-7.831s7.153,3.5,7.153,7.831-3.208,7.832-7.153,7.832S214.54,20.632,214.54,16.3Zm937.748,0c0-4.291,3.172-7.769,7.085-7.769s7.1,3.478,7.1,7.769-3.172,7.77-7.1,7.77S1152.288,20.594,1152.288,16.3Zm-21.2,0c0-4.215,3.116-7.631,6.971-7.631s6.983,3.416,6.983,7.631-3.128,7.644-6.983,7.644S1131.089,20.519,1131.089,16.3Zm-980.305,0c0-4.215,3.116-7.631,6.96-7.631s6.983,3.416,6.983,7.631-3.127,7.644-6.983,7.644S150.783,20.519,150.783,16.3Zm1022.988,0c0-4.191,3.093-7.569,6.915-7.569s6.915,3.378,6.915,7.569-3.093,7.57-6.915,7.57S1173.771,20.481,1173.771,16.3Zm-234.249,0c0-4.078,3.026-7.38,6.745-7.38S953,12.224,953,16.3s-3.014,7.381-6.733,7.381S939.522,20.381,939.522,16.3Zm-490.153,0c0-4.078,3.014-7.38,6.733-7.38s6.745,3.3,6.745,7.38-3.026,7.381-6.745,7.381S449.369,20.381,449.369,16.3Zm-277.045,0c0-4.078,3.013-7.38,6.732-7.38s6.745,3.3,6.745,7.38-3.014,7.381-6.745,7.381S172.324,20.381,172.324,16.3Zm1023.056,0c0-4,2.957-7.256,6.619-7.256s6.62,3.253,6.62,7.256-2.957,7.244-6.62,7.244S1195.38,20.306,1195.38,16.3Zm21.426,0c0-3.94,2.911-7.118,6.494-7.118,3.605,0,6.517,3.178,6.517,7.118s-2.911,7.119-6.517,7.119C1219.718,23.421,1216.806,20.231,1216.806,16.3Zm-1022.931,0c0-3.94,2.911-7.118,6.505-7.118s6.494,3.178,6.494,7.118-2.911,7.119-6.494,7.119S193.875,20.231,193.875,16.3Zm1044.528,0c0-3.753,2.8-6.792,6.21-6.792,3.434,0,6.209,3.039,6.209,6.792s-2.775,6.793-6.209,6.793C1241.2,23.1,1238.4,20.055,1238.4,16.3Zm-319.66,0a6.516,6.516,0,0,1,6.21-6.792c3.434,0,6.209,3.039,6.209,6.792s-2.775,6.793-6.209,6.793S918.743,20.055,918.743,16.3Zm-21.063,0a5.984,5.984,0,1,1,11.919,0c0,3.6-2.661,6.543-5.959,6.543S897.681,19.906,897.681,16.3Zm-21.085,0a5.756,5.756,0,1,1,11.463,0,5.756,5.756,0,1,1-11.463,0Zm-404.913,0a5.756,5.756,0,1,1,11.464,0,5.756,5.756,0,1,1-11.464,0Zm43.217,0a5.162,5.162,0,1,1,10.282,0,5.162,5.162,0,1,1-10.282,0Zm-21.313,0a5.162,5.162,0,1,1,10.282,0,5.162,5.162,0,1,1-10.282,0Zm362.355,0a5.1,5.1,0,1,1,10.156,0,5.1,5.1,0,1,1-10.156,0Zm-21.143,0a4.922,4.922,0,1,1,9.8,0,4.923,4.923,0,1,1-9.8,0Zm-20.6,0a4.214,4.214,0,1,1,8.393,0,4.215,4.215,0,1,1-8.393,0Zm-276.989,0a4.151,4.151,0,1,1,8.267,0,4.151,4.151,0,1,1-8.267,0ZM793,16.3a4.094,4.094,0,1,1,8.155,0,4.094,4.094,0,1,1-8.155,0Zm-21.256,0a4.037,4.037,0,1,1,8.042,0,4.037,4.037,0,1,1-8.042,0Zm-21.3,0a4.032,4.032,0,1,1,8.029,0,4.032,4.032,0,1,1-8.029,0Zm-170.492,0a4.037,4.037,0,1,1,8.041,0,4.037,4.037,0,1,1-8.041,0Zm-21.313,0a4.037,4.037,0,1,1,8.041,0,4.037,4.037,0,1,1-8.041,0Zm42.864,0a3.8,3.8,0,1,1,7.564,0,3.8,3.8,0,1,1-7.564,0Zm85.546,0a3.495,3.495,0,1,1,6.958,0,3.495,3.495,0,1,1-6.958,0Zm42.674,0a3.438,3.438,0,1,1,6.846,0,3.438,3.438,0,1,1-6.846,0Zm-63.939,0a3.443,3.443,0,1,1,6.858,0,3.443,3.443,0,1,1-6.858,0Zm-21.245,0a3.38,3.38,0,1,1,6.732,0,3.38,3.38,0,1,1-6.732,0Zm64,0a3.324,3.324,0,1,1,6.62,0,3.324,3.324,0,1,1-6.62,0Zm-85.252,0a3.323,3.323,0,1,1,6.619,0,3.323,3.323,0,1,1-6.619,0ZM1345.383,0h11.581a8.179,8.179,0,0,1-5.79,2.454A8.18,8.18,0,0,1,1345.383,0ZM66.748,0H78.263A8.191,8.191,0,0,1,72.5,2.417,8.175,8.175,0,0,1,66.748,0ZM322.54,0h11.4a8.114,8.114,0,0,1-5.7,2.386A8.115,8.115,0,0,1,322.54,0ZM88.116,0h11.4a8.115,8.115,0,0,1-5.7,2.386A8.114,8.114,0,0,1,88.116,0ZM1068.46,0H1079.8a8.113,8.113,0,0,1-5.667,2.354A8.129,8.129,0,0,1,1068.46,0ZM343.881,0H355.22a8.129,8.129,0,0,1-5.672,2.354A8.112,8.112,0,0,1,343.881,0ZM45.523,0H56.862A8.129,8.129,0,0,1,51.19,2.354,8.113,8.113,0,0,1,45.523,0ZM1089.955,0h10.972a7.983,7.983,0,0,1-5.482,2.217A8,8,0,0,1,1089.955,0ZM1047.7,0h10.226a7.743,7.743,0,0,1-5.111,1.953A7.758,7.758,0,0,1,1047.7,0ZM365.751,0h10.221a7.743,7.743,0,0,1-5.111,1.953A7.741,7.741,0,0,1,365.751,0ZM301.819,0h10.225a7.741,7.741,0,0,1-5.11,1.953A7.758,7.758,0,0,1,301.819,0ZM1324.847,0h10.032a7.7,7.7,0,0,1-5.026,1.891A7.661,7.661,0,0,1,1324.847,0ZM1111.736,0h10.036a7.7,7.7,0,0,1-5.025,1.891A7.677,7.677,0,0,1,1111.736,0ZM280.6,0h10.036a7.679,7.679,0,0,1-5.016,1.891A7.7,7.7,0,0,1,280.6,0ZM110.113,0h10.032a7.679,7.679,0,0,1-5.016,1.891A7.68,7.68,0,0,1,110.113,0Zm916.564,0h9.664a7.563,7.563,0,0,1-4.834,1.766A7.547,7.547,0,0,1,1026.676,0ZM25.052,0h9.659a7.563,7.563,0,0,1-4.834,1.766A7.546,7.546,0,0,1,25.052,0ZM408.761,0H418.2a7.491,7.491,0,0,1-4.718,1.691A7.507,7.507,0,0,1,408.761,0ZM387.452,0h9.44a7.491,7.491,0,0,1-4.718,1.691A7.492,7.492,0,0,1,387.452,0Zm916.584,0h9.039a7.37,7.37,0,0,1-4.522,1.565A7.365,7.365,0,0,1,1304.036,0ZM1005.681,0h9.035a7.369,7.369,0,0,1-4.522,1.565A7.35,7.35,0,0,1,1005.681,0ZM4.05,0H13.1A7.369,7.369,0,0,1,8.575,1.565,7.384,7.384,0,0,1,4.05,0ZM1134.191,0h7.742a6.989,6.989,0,0,1-3.872,1.178A6.974,6.974,0,0,1,1134.191,0ZM985.011,0h7.747a7,7,0,0,1-3.878,1.178A6.974,6.974,0,0,1,985.011,0ZM1155.8,0h7.155a6.788,6.788,0,0,1-3.577,1.024A6.789,6.789,0,0,1,1155.8,0Zm128.05,0h6.78a6.749,6.749,0,0,1-3.39.915A6.749,6.749,0,0,1,1283.849,0Zm-21.31,0h6.785a6.771,6.771,0,0,1-3.4.915A6.735,6.735,0,0,1,1262.539,0ZM1177.3,0h6.779a6.748,6.748,0,0,1-3.39.915A6.747,6.747,0,0,1,1177.3,0ZM260.918,0h6.78a6.748,6.748,0,0,1-3.39.915A6.749,6.749,0,0,1,260.918,0ZM239.606,0h6.779A6.747,6.747,0,0,1,243,.915,6.749,6.749,0,0,1,239.606,0ZM218.293,0h6.779a6.747,6.747,0,0,1-3.389.915A6.749,6.749,0,0,1,218.293,0ZM196.983,0h6.785a6.735,6.735,0,0,1-3.387.915A6.771,6.771,0,0,1,196.983,0ZM175.667,0h6.787a6.772,6.772,0,0,1-3.4.915A6.747,6.747,0,0,1,175.667,0ZM154.354,0h6.782a6.763,6.763,0,0,1-3.393.915A6.747,6.747,0,0,1,154.354,0Zm-21.3,0h6.78a6.749,6.749,0,0,1-3.39.915A6.749,6.749,0,0,1,133.052,0ZM1198.865,0h6.266A6.608,6.608,0,0,1,1202,.79,6.621,6.621,0,0,1,1198.865,0Zm21.443,0h6a6.568,6.568,0,0,1-3,.728A6.534,6.534,0,0,1,1220.308,0ZM431.791,0h6a6.569,6.569,0,0,1-3,.728A6.545,6.545,0,0,1,431.791,0ZM1241.9,0h5.431a6.438,6.438,0,0,1-2.719.6A6.413,6.413,0,0,1,1241.9,0ZM965.553,0H969.6a6.193,6.193,0,0,1-2.025.34A6.2,6.2,0,0,1,965.553,0ZM945.306,0h1.92a6,6,0,0,1-.96.077A6,6,0,0,1,945.306,0Z" transform="translate(3 3447)" fill="#fff" opacity="0.05"/>
  </g>
</svg>
