<svg xmlns="http://www.w3.org/2000/svg" width="61.04" height="28.008" viewBox="0 0 61.04 28.008">
  <path id="Path_3138" data-name="Path 3138" d="M-17.19,0H-29.832V-21.812h2.9V-2.578h9.741ZM-1.663-8.174A9.308,9.308,0,0,1-3.655-1.794,6.736,6.736,0,0,1-8.958.454a6.645,6.645,0,0,1-5.369-2.322,9.479,9.479,0,0,1-1.956-6.306,9.28,9.28,0,0,1,2.014-6.372,6.755,6.755,0,0,1,5.31-2.271,6.715,6.715,0,0,1,5.3,2.263A9.342,9.342,0,0,1-1.663-8.174Zm-2.842,0A7.874,7.874,0,0,0-5.662-12.9a3.872,3.872,0,0,0-3.3-1.545A3.907,3.907,0,0,0-12.275-12.9,7.836,7.836,0,0,0-13.44-8.174a7.838,7.838,0,0,0,1.165,4.666A3.867,3.867,0,0,0-8.958-1.919a3.863,3.863,0,0,0,3.289-1.56A7.816,7.816,0,0,0-4.5-8.174ZM11.008-4.438v-8.979a9.6,9.6,0,0,0-1.9-.71,7.309,7.309,0,0,0-1.736-.212A3.953,3.953,0,0,0,4.08-12.8a7.033,7.033,0,0,0-1.2,4.409,7.7,7.7,0,0,0,.916,4.146A3.264,3.264,0,0,0,6.76-2.827a6.272,6.272,0,0,0,2.2-.425A6.937,6.937,0,0,0,11.008-4.438ZM1.75,2.622q.278.117.82.315t1.23.374q.762.19,1.406.308a7.874,7.874,0,0,0,1.406.117A6.1,6.1,0,0,0,8.774,3.4a3.252,3.252,0,0,0,1.384-.937,3.6,3.6,0,0,0,.659-1.392,7.729,7.729,0,0,0,.19-1.8V-2.168A8.549,8.549,0,0,1,8.826-.74a6.789,6.789,0,0,1-2.681.461,5.4,5.4,0,0,1-4.453-2.08A9.408,9.408,0,0,1,.037-8.335a10.554,10.554,0,0,1,.571-3.611,8.26,8.26,0,0,1,1.538-2.673,6.363,6.363,0,0,1,2.183-1.626,6.247,6.247,0,0,1,2.607-.571,7.206,7.206,0,0,1,2.2.3,9.2,9.2,0,0,1,1.868.857l.161-.7h2.593v14.5q0,4.16-1.816,6.108T6.394,6.2a16.311,16.311,0,0,1-2.454-.19A17.358,17.358,0,0,1,1.6,5.493V2.622Zm29.458-10.8a9.308,9.308,0,0,1-1.992,6.379,6.736,6.736,0,0,1-5.3,2.249,6.645,6.645,0,0,1-5.369-2.322,9.479,9.479,0,0,1-1.956-6.306A9.28,9.28,0,0,1,18.6-14.546a6.755,6.755,0,0,1,5.31-2.271,6.715,6.715,0,0,1,5.3,2.263A9.342,9.342,0,0,1,31.208-8.174Zm-2.842,0A7.874,7.874,0,0,0,27.209-12.9a3.872,3.872,0,0,0-3.3-1.545A3.907,3.907,0,0,0,20.6-12.9a7.836,7.836,0,0,0-1.165,4.724A7.838,7.838,0,0,0,20.6-3.508a3.867,3.867,0,0,0,3.318,1.589A3.863,3.863,0,0,0,27.2-3.479,7.816,7.816,0,0,0,28.367-8.174Z" transform="translate(29.832 21.812)" fill="#a4a4a4"/>
</svg>
