<svg xmlns="http://www.w3.org/2000/svg" width="66.75" height="22.86" viewBox="0 0 66.75 22.86">
  <path id="Path_3139" data-name="Path 3139" d="M-24.015-11.67c0-1.62.48-2.25,1.02-2.31l.93-.15V-16.5l-2.22-2.94H-32.6v2.76l.96.18c.57.06.99.48.99,1.86V-4.41c0,1.05-.21,1.89-.78,2.01l-1.17.18V.54l1.92,2.52h14.01V-3.63l-2.25-3.03h-2.91v1.68c0,1.11-.54,1.83-1.11,1.83a.967.967,0,0,1-1.08-1.02ZM-29.6-9.78a.941.941,0,0,1,1.11,0,4.559,4.559,0,0,1-.93,1.47,14.815,14.815,0,0,1,.99,4.92,14.815,14.815,0,0,1,.99-4.92,5.316,5.316,0,0,1-.96-1.47.943.943,0,0,1,1.11,0v-4.86c0-2.28.63-2.85,1.17-2.97l.78-.12v-.66h-6.21v.66l.78.12c.54.12,1.17.69,1.17,2.97Zm-.54-4.86c0-1.41-.36-2.28-.96-2.4l-.96-.15V-18.9h7.23v1.71l-.96.15c-.6.12-.96.99-.96,2.4v9.6c0,1.71.42,2.67,2.61,2.67,2.1,0,2.85-.69,2.85-2.13V-6.15h1.89V0h-12.66V-1.71l.96-.15c.72-.15.96-1.02.96-2.4Zm1.65,4.83a3.434,3.434,0,0,0-.93-2.1,9.2,9.2,0,0,0,.99-4.05,9.2,9.2,0,0,0,.99,4.05,3.616,3.616,0,0,0-.96,2.1Zm16.17-4.02c0-2.91,1.14-3.87,2.7-3.87,1.53,0,2.67.96,2.67,3.87v4.05a1.486,1.486,0,0,1,1.44,0,4.9,4.9,0,0,1-.93,1.47,10.224,10.224,0,0,1,.57,4.92,18.114,18.114,0,0,0,1.38-4.92,7.771,7.771,0,0,1-.93-1.47,1.553,1.553,0,0,1,1.47,0v-2.55c0-3.06-2.04-6.27-5.67-6.27-3.66,0-5.7,3.21-5.7,6.27v2.55a1.56,1.56,0,0,1,1.47,0,7.771,7.771,0,0,1-.93,1.47,34.948,34.948,0,0,0,1.41,4.92,8.872,8.872,0,0,1,.54-4.92,5.585,5.585,0,0,1-.93-1.47,1.486,1.486,0,0,1,1.44,0Zm11.64,2.94a9.072,9.072,0,0,0-8.94-8.73c-3.51,0-6.75,2.85-6.75,7.35v5.76c0,6.57,4.11,9.75,8.4,9.75,4.17,0,7.29-2.85,7.29-8.61ZM-3.4-6.81c.03,3.78-2.43,6.99-6.21,6.99-3.75,0-6.27-2.7-6.24-6.78l.03-5.73c0-3.54,2.46-6.78,6.21-6.78s6.18,3.03,6.21,6.78Zm-10.44-3.03a3.918,3.918,0,0,0-.93-2.1,14.61,14.61,0,0,1,1.65-4.02,6.8,6.8,0,0,0,.3,4.02,3.707,3.707,0,0,0-.93,2.1Zm8.34,0a3.52,3.52,0,0,0-.93-2.1,7.011,7.011,0,0,0,.3-4.02,14.244,14.244,0,0,1,1.65,4.02,3.918,3.918,0,0,0-.93,2.1Zm-6.24,3.99c0,2.19.33,4.11,2.13,4.11,1.77,0,2.13-2.07,2.13-4.11v-7.98c0-1.68-.36-3.33-2.13-3.33-1.8,0-2.13,1.65-2.13,3.33Zm3.75-.06c0,1.62-.21,2.88-.66,2.88-.3,0-.39-1.35-.39-2.52v-7.08c0-1.59.21-2.19.57-2.19.42,0,.48.84.48,2.04ZM13.065,0h-1.59a.773.773,0,0,0-.66-.54,3.722,3.722,0,0,0-1.23.42,6.993,6.993,0,0,1-2.37.3c-4.5,0-6.3-3.84-6.3-7.5v-5.01c0-3.39,2.28-6.78,6.21-6.78a5.566,5.566,0,0,1,2.43.57,4.165,4.165,0,0,0,1.44.51c.36,0,.48-.57.48-.96h2.04v8.91h-3.09c-.03-2.97-.96-7.08-3.3-7.08-1.8,0-2.16,1.65-2.16,3.33v7.98c0,1.68.81,4.11,2.73,4.11,1.29,0,2.7-.48,2.7-2.97,0-1.14-.48-1.59-1.08-1.59h-.48V-8.58h6.15V-6.3h-1.02c-.72,0-.9.69-.9,1.56ZM1.425-9.78a1.583,1.583,0,0,1,1.47,0,5.412,5.412,0,0,1-.93,1.47c.36,1.29.81,3,1.38,4.92a30.169,30.169,0,0,1,.54-4.92,5.252,5.252,0,0,1-.9-1.47,1.529,1.529,0,0,1,1.44,0v-4.05c0-1.92.42-3.87,2.7-3.87,2.46,0,3.63,3.36,3.84,7.11h2.01v-7.86h-.96a1,1,0,0,1-.87.96,3.633,3.633,0,0,1-1.8-.57,5.141,5.141,0,0,0-2.22-.54c-3.48,0-5.7,3.12-5.7,6.66ZM15.8,3.06V-2.19a.863.863,0,0,1,.9-.99h1.05V-6.51l-1.5-1.65v-8.49l-2.52-2.85h-2.73c0,.45-.06.9-.24.9a4.662,4.662,0,0,1-1.2-.54,6.435,6.435,0,0,0-2.61-.48c-3.57,0-6.57,3.06-6.57,7.29v5.01c0,6.09,4.11,10.56,8.85,10.56a7.2,7.2,0,0,0,2.52-.45,3.621,3.621,0,0,1,1.35-.36,1.242,1.242,0,0,1,.93.63ZM2.895-9.81a3.708,3.708,0,0,0-.93-2.1,17.448,17.448,0,0,1,1.65-4.05,7.188,7.188,0,0,0,.27,4.05,3.71,3.71,0,0,0-.9,2.1Zm7.68.72H8.295v3.3H8.8a1.036,1.036,0,0,1,1.08,1.08c0,1.14-.3,1.95-1.05,1.95-.72,0-1.14-.72-1.14-1.5v-8.37c0-1.35.03-2.19.78-2.19.66,0,1.23.78,1.44,4.95Zm11.94-4.74c0-2.91,1.14-3.87,2.7-3.87,1.53,0,2.67.96,2.67,3.87v4.05a1.486,1.486,0,0,1,1.44,0,4.9,4.9,0,0,1-.93,1.47,10.224,10.224,0,0,1,.57,4.92,18.114,18.114,0,0,0,1.38-4.92,7.771,7.771,0,0,1-.93-1.47,1.553,1.553,0,0,1,1.47,0v-2.55c0-3.06-2.04-6.27-5.67-6.27-3.66,0-5.7,3.21-5.7,6.27v2.55a1.56,1.56,0,0,1,1.47,0,7.771,7.771,0,0,1-.93,1.47,34.948,34.948,0,0,0,1.41,4.92,8.872,8.872,0,0,1,.54-4.92,5.585,5.585,0,0,1-.93-1.47,1.486,1.486,0,0,1,1.44,0Zm11.64,2.94a9.072,9.072,0,0,0-8.94-8.73c-3.51,0-6.75,2.85-6.75,7.35v5.76c0,6.57,4.11,9.75,8.4,9.75,4.17,0,7.29-2.85,7.29-8.61Zm-2.73,4.08C31.455-3.03,29,.18,25.215.18c-3.75,0-6.27-2.7-6.24-6.78l.03-5.73c0-3.54,2.46-6.78,6.21-6.78s6.18,3.03,6.21,6.78ZM20.985-9.84a3.918,3.918,0,0,0-.93-2.1,14.61,14.61,0,0,1,1.65-4.02,6.8,6.8,0,0,0,.3,4.02,3.707,3.707,0,0,0-.93,2.1Zm8.34,0a3.52,3.52,0,0,0-.93-2.1,7.011,7.011,0,0,0,.3-4.02,14.244,14.244,0,0,1,1.65,4.02,3.918,3.918,0,0,0-.93,2.1Zm-6.24,3.99c0,2.19.33,4.11,2.13,4.11,1.77,0,2.13-2.07,2.13-4.11v-7.98c0-1.68-.36-3.33-2.13-3.33-1.8,0-2.13,1.65-2.13,3.33Zm3.75-.06c0,1.62-.21,2.88-.66,2.88-.3,0-.39-1.35-.39-2.52v-7.08c0-1.59.21-2.19.57-2.19.42,0,.48.84.48,2.04Z" transform="translate(32.595 19.62)" fill="#a4a4a4"/>
</svg>
