<svg xmlns="http://www.w3.org/2000/svg" width="59.64" height="28.35" viewBox="0 0 59.64 28.35">
  <path id="Path_3141" data-name="Path 3141" d="M-26.37-20.43V-1.41q.96,0,3.135-.06t2.3-.06a16.022,16.022,0,0,0,1.77-.12q.72-.12,1.08-.15l-.09.9.09.9H-29.01V-20.43l1.32.09ZM-15.63-7.2a6.793,6.793,0,0,1,2.175-5.205A7.682,7.682,0,0,1-8.01-14.43a6.688,6.688,0,0,1,5.025,2A7.323,7.323,0,0,1-1.05-7.11,7.433,7.433,0,0,1-2.94-1.95,7.2,7.2,0,0,1-8.55.33a6.782,6.782,0,0,1-5.085-2.055A7.525,7.525,0,0,1-15.63-7.2Zm7.59-6.3a4.2,4.2,0,0,0-3.9,2.16,8.911,8.911,0,0,0-1.05,4.59,7.694,7.694,0,0,0,1.05,4.2A4.021,4.021,0,0,0-8.31-.6,3.941,3.941,0,0,0-4.68-3.03a8.976,8.976,0,0,0,.99-4.23,8.5,8.5,0,0,0-.9-4.11A3.729,3.729,0,0,0-8.04-13.5ZM7.56-.15q-4.65,0-4.65,3.525A3.208,3.208,0,0,0,4.1,6.064,4.95,4.95,0,0,0,7.23,6.99a5.633,5.633,0,0,0,3.18-.837,3.338,3.338,0,0,0,1.56-2.987,3.292,3.292,0,0,0-.78-2.42Q10.29-.15,7.56-.15Zm6.36-14.13v1.14l-3.3-.27a5.456,5.456,0,0,1,1.53,1.724,4.471,4.471,0,0,1,.54,2.2,3.919,3.919,0,0,1-1.89,3.5,8.22,8.22,0,0,1-4.5,1.1H5.82a2.058,2.058,0,0,0-1.08.24,1.318,1.318,0,0,0-.6,1.23A1.125,1.125,0,0,0,4.8-2.25a6.443,6.443,0,0,0,2.22.27H8.94a6.282,6.282,0,0,1,3.915,1A3.57,3.57,0,0,1,14.13,2.01a5.176,5.176,0,0,1-2.085,4.275A8.721,8.721,0,0,1,6.51,7.92,6.391,6.391,0,0,1,2.88,6.9a3.843,3.843,0,0,1-1.8-3.39,3.5,3.5,0,0,1,.825-2.46A3.979,3.979,0,0,1,4.2-.12V-.36a1.973,1.973,0,0,1-1.455-.8A3.117,3.117,0,0,1,2.37-2.79a2.32,2.32,0,0,1,.6-1.62,4.068,4.068,0,0,1,1.47-.96A5.225,5.225,0,0,1,2.31-6.99a4.44,4.44,0,0,1-.78-2.67,4.362,4.362,0,0,1,1.38-3.48,7.07,7.07,0,0,1,4.68-1.29l4.17.15h2.16ZM3.81-9.69a4.877,4.877,0,0,0,.84,2.9A2.794,2.794,0,0,0,7.08-5.61a2.989,2.989,0,0,0,2.49-1.2,4.314,4.314,0,0,0,.84-2.73,5.084,5.084,0,0,0-.69-2.91A2.852,2.852,0,0,0,7.2-13.62a3.057,3.057,0,0,0-2.475,1.1A4.273,4.273,0,0,0,3.81-9.69ZM16.05-7.2a6.793,6.793,0,0,1,2.175-5.205A7.682,7.682,0,0,1,23.67-14.43a6.688,6.688,0,0,1,5.025,2A7.323,7.323,0,0,1,30.63-7.11a7.433,7.433,0,0,1-1.89,5.16A7.2,7.2,0,0,1,23.13.33a6.782,6.782,0,0,1-5.085-2.055A7.525,7.525,0,0,1,16.05-7.2Zm7.59-6.3a4.2,4.2,0,0,0-3.9,2.16,8.911,8.911,0,0,0-1.05,4.59,7.694,7.694,0,0,0,1.05,4.2A4.021,4.021,0,0,0,23.37-.6,3.941,3.941,0,0,0,27-3.03a8.976,8.976,0,0,0,.99-4.23,8.5,8.5,0,0,0-.9-4.11A3.729,3.729,0,0,0,23.64-13.5Z" transform="translate(29.01 20.43)" fill="#a4a4a4"/>
</svg>
