<svg xmlns="http://www.w3.org/2000/svg" width="31.992" height="25.356" viewBox="0 0 31.992 25.356">
  <path id="Path_3142" data-name="Path 3142" d="M-8.8,0h-7.339V-.542h.747V-20.464h-.747v-.542h3.9v.542h-.747V-.542h1.8V-6.3H-8.8ZM-.82-2.915A2.846,2.846,0,0,1-1.78-.74,3.434,3.434,0,0,1-4.2.146,3.461,3.461,0,0,1-6.636-.74,2.837,2.837,0,0,1-7.6-2.915v-9.771a2.837,2.837,0,0,1,.967-2.175A3.461,3.461,0,0,1-4.2-15.747a3.434,3.434,0,0,1,2.424.886A2.846,2.846,0,0,1-.82-12.686ZM-3.164-1.6V-14q0-1.2-1.04-1.2T-5.259-14V-1.6q0,1.2,1.055,1.2T-3.164-1.6ZM8.086-15.059H7.339V1.289a2.921,2.921,0,0,1-.908,2.175,3.234,3.234,0,0,1-2.358.886,3.426,3.426,0,0,1-2.366-.9,2.806,2.806,0,0,1-1-2.161V.747H3.047v1.86q0,1.2,1.025,1.2Q5,3.809,5,2.607V-.718a2.568,2.568,0,0,1-1.743.571Q.7-.146.7-2.915V-12.993q0-2.754,2.549-2.754A2.568,2.568,0,0,1,5-15.176V-15.6H8.086ZM5-1.26V-14.634a1.526,1.526,0,0,0-1.084-.513q-.864,0-.864,1.143V-1.89q0,1.143.864,1.143A1.526,1.526,0,0,0,5-1.26ZM15.85-2.915A2.846,2.846,0,0,1,14.89-.74a3.434,3.434,0,0,1-2.424.886A3.461,3.461,0,0,1,10.034-.74a2.837,2.837,0,0,1-.967-2.175v-9.771a2.837,2.837,0,0,1,.967-2.175,3.461,3.461,0,0,1,2.432-.886,3.434,3.434,0,0,1,2.424.886,2.846,2.846,0,0,1,.959,2.175ZM13.506-1.6V-14q0-1.2-1.04-1.2T11.411-14V-1.6q0,1.2,1.055,1.2T13.506-1.6Z" transform="translate(16.143 21.006)" fill="#a4a4a4"/>
</svg>
