<svg xmlns="http://www.w3.org/2000/svg" width="88.872" height="31.26" viewBox="0 0 88.872 31.26">
  <path id="Path_3140" data-name="Path 3140" d="M-21.174-7.793a14.117,14.117,0,0,1-.674,4.321A14.278,14.278,0,0,1-23.181-.513Q-23.65.22-24.1.967a.355.355,0,0,1-.4.146A68.628,68.628,0,0,0-34.783.293q-6.445,0-7.749,1.772l-.659-3.691a3.6,3.6,0,0,1,2.036-.527,7.021,7.021,0,0,1,1.45.176q-2.021-5.054-2.021-13.916,0-.659.037-2.014t.037-2.073a1.415,1.415,0,0,0-1.333-1.494q-.483-.059-1.494-.249-.4-.1-.4-1.406a3.211,3.211,0,0,1,.059-.63q.278.132,13.184,1.318A34.285,34.285,0,0,0-33.9-15.85,29.685,29.685,0,0,0-35-8.789q0,6.636,5.068,6.636A9.183,9.183,0,0,0-24.4-3.545a2.846,2.846,0,0,0,1.362-2.271q0-.659-.322-.659a.235.235,0,0,0-.146.059,7.988,7.988,0,0,1-4.6,1.553,4.357,4.357,0,0,1-3.442-1.465,2.046,2.046,0,0,1-.571-1.377,3.142,3.142,0,0,1,1.392-2.344,10.071,10.071,0,0,1,3.53-1.8,9.937,9.937,0,0,1,2.842-.542Q-21.174-12.393-21.174-7.793ZM.315-10.225A19.991,19.991,0,0,1-.022-6.9,11.62,11.62,0,0,1-2.6-1.128,8.62,8.62,0,0,1-9.47,1.86,11.077,11.077,0,0,1-16.516-.63a7.857,7.857,0,0,1-3.325-6.328,7.915,7.915,0,0,1,2.49-5.508A11.871,11.871,0,0,1-10-16a28.209,28.209,0,0,1,3.354-.176q3.809,0,5.464,1.553A5.778,5.778,0,0,1,.315-10.225ZM-2.2-8.1q0-1.128-1.875-1.772a13.953,13.953,0,0,0-4.365-.571,11.19,11.19,0,0,0-5.7,1.611Q-16.75-7.31-16.75-5.947q0,.938,1.67,1.567a11.537,11.537,0,0,0,4.058.63A13.317,13.317,0,0,0-5.1-5.171Q-2.2-6.592-2.2-8.1Zm25.62-7.046-.322,3.3a2.7,2.7,0,0,1-.82.146,4.325,4.325,0,0,1-2.036-.63A18.663,18.663,0,0,1,22.668-3a16.175,16.175,0,0,1-.176,2.4q-.674,4.38-2.812,6.094Q17.19,7.5,11.184,7.5,6,7.5,3.289,5.684A5.058,5.058,0,0,1,1.194,3.091,6.3,6.3,0,0,1,.828,1.23Q.828-1,4.519-1.714a16.337,16.337,0,0,1,3.032-.293,8.225,8.225,0,0,1,3.413.6q1.26.6,1.26,1.553,0,2.168-2.9,3.149-1.934.659-2.285.82-.688.322-.688.688,0,.542,2.314.542A10.937,10.937,0,0,0,13.6,4.321q1.714-.85,2.49-4.131A20.861,20.861,0,0,0,16.6-4.556a5.231,5.231,0,0,0-.059-.908,3.773,3.773,0,0,1-2.373,1.831,11.013,11.013,0,0,1-3.721.6A5.951,5.951,0,0,1,5.588-5.215a8.147,8.147,0,0,1-1.7-4,21.1,21.1,0,0,1-.337-3.062,3.708,3.708,0,0,1,.938-2.8,5.127,5.127,0,0,1,3.633-1.04,20.9,20.9,0,0,1,3.032.278,8.966,8.966,0,0,1,4.673,1.8q.146.117.146-.073a16.79,16.79,0,0,0-.571-2.607,12.1,12.1,0,0,0,6.24,1.978A3.106,3.106,0,0,0,23.416-15.146ZM17.322-8.423q0-.952-2.065-1.934a8.823,8.823,0,0,0-3.779-.864,11.524,11.524,0,0,0-3.105.352q-1.392.4-1.392,1.113,0,.864,2.058,1.707a11.318,11.318,0,0,0,4.329.842,9.754,9.754,0,0,0,2.871-.344Q17.322-7.9,17.322-8.423ZM44-10.225A19.991,19.991,0,0,1,43.66-6.9a11.62,11.62,0,0,1-2.578,5.771,8.62,8.62,0,0,1-6.87,2.988A11.077,11.077,0,0,1,27.166-.63,7.857,7.857,0,0,1,23.84-6.958a7.915,7.915,0,0,1,2.49-5.508A11.871,11.871,0,0,1,33.684-16a28.209,28.209,0,0,1,3.354-.176q3.809,0,5.464,1.553A5.778,5.778,0,0,1,44-10.225ZM41.477-8.1q0-1.128-1.875-1.772a13.953,13.953,0,0,0-4.365-.571,11.19,11.19,0,0,0-5.7,1.611Q26.931-7.31,26.931-5.947q0,.938,1.67,1.567a11.537,11.537,0,0,0,4.058.63,13.317,13.317,0,0,0,5.918-1.421Q41.477-6.592,41.477-8.1Z" transform="translate(44.875 23.76)" fill="#a4a4a4"/>
</svg>
