<svg xmlns="http://www.w3.org/2000/svg" width="58.02" height="26.88" viewBox="0 0 58.02 26.88">
  <path id="Path_3137" data-name="Path 3137" d="M-26.67-18.03-26.7-1.59c0,.09-.03.12-.09.12l-2.07.09c0,.45-.03.96-.03,1.41,1.08,0,2.28-.03,3.54-.03,4.05,0,7.71.03,9.12.03.39-1.59.87-3.57,1.17-5.04a10.858,10.858,0,0,0-1.56-.36L-17.7-2.22c-.12.36-.27.57-.54.63a31.435,31.435,0,0,1-4.8.18c-1.26,0-1.29-.09-1.29-.63l.09-15.87c0-.09,0-.12.06-.12l2.64-.06c.03-.45.03-.96.03-1.41h-7.32c-.03.45-.06.93-.06,1.41ZM-6.87.3A6.055,6.055,0,0,0-2.88-.96,6.922,6.922,0,0,0-.3-6.57a6.1,6.1,0,0,0-2.34-5.19A5.954,5.954,0,0,0-6.36-12.9a6.6,6.6,0,0,0-4.11,1.38,6.844,6.844,0,0,0-2.55,5.49,6.307,6.307,0,0,0,2.01,4.92A6.06,6.06,0,0,0-6.87.3Zm.18-1.32a3.255,3.255,0,0,1-2.4-.99,5.7,5.7,0,0,1-1.38-4.26,5.885,5.885,0,0,1,1.38-4.26,3.536,3.536,0,0,1,2.52-1.02,3.19,3.19,0,0,1,2.55,1.11,5.823,5.823,0,0,1,1.2,3.99A6.072,6.072,0,0,1-4.17-2.01,3.366,3.366,0,0,1-6.69-1.02ZM5.43-3.42C3.18-1.86,3.09-1.8,3.09-1.53A2.054,2.054,0,0,0,4.86.51V.69c-.72.6-1.38,1.02-2.52,1.89a1.5,1.5,0,0,0-.63,1.35c0,2.22,2.13,3.45,5.73,3.45a12.648,12.648,0,0,0,4.59-.84,4.488,4.488,0,0,0,3.09-4.02A2.446,2.446,0,0,0,13.74.15c-.81-.57-2.19-.69-4.35-.81-2.97-.09-3.9-.18-3.9-.99,0-.39.72-.96,1.44-1.56a5.866,5.866,0,0,0,4.95-1.62,5.117,5.117,0,0,0,1.35-3.42,3.822,3.822,0,0,0-1.08-2.85l.03-.12c.6,0,2.22.03,2.85,0a13.014,13.014,0,0,0,0-1.53c-.96.06-2.64.12-3.93.18a2.691,2.691,0,0,1-.66-.06A7.032,7.032,0,0,0,8.4-12.9c-3.6,0-5.76,2.46-5.76,5.04A4.535,4.535,0,0,0,5.43-3.6ZM5.01-7.95c0-2.37,1.23-3.66,3.06-3.66a2.46,2.46,0,0,1,2.1.93,3.791,3.791,0,0,1,.72,2.49c0,2.46-1.35,3.72-3,3.72C6.39-4.47,5.01-5.4,5.01-7.95ZM12.87,3.03a2.608,2.608,0,0,1-1.65,2.31,7.693,7.693,0,0,1-3.42.72c-1.68,0-3.75-.6-3.75-2.13,0-.99.99-1.77,2.34-2.94.63,0,1.62.06,3.12.15C12.06,1.32,12.87,1.62,12.87,3.03ZM22.56.3A6.055,6.055,0,0,0,26.55-.96a6.922,6.922,0,0,0,2.58-5.61,6.1,6.1,0,0,0-2.34-5.19,5.954,5.954,0,0,0-3.72-1.14,6.6,6.6,0,0,0-4.11,1.38,6.844,6.844,0,0,0-2.55,5.49,6.307,6.307,0,0,0,2.01,4.92A6.06,6.06,0,0,0,22.56.3Zm.18-1.32a3.255,3.255,0,0,1-2.4-.99,5.7,5.7,0,0,1-1.38-4.26,5.885,5.885,0,0,1,1.38-4.26,3.536,3.536,0,0,1,2.52-1.02,3.19,3.19,0,0,1,2.55,1.11,5.823,5.823,0,0,1,1.2,3.99,6.072,6.072,0,0,1-1.35,4.44A3.366,3.366,0,0,1,22.74-1.02Z" transform="translate(28.89 19.5)" fill="#a4a4a4"/>
</svg>
