<svg id="loupe_1_" data-name="loupe (1)" xmlns="http://www.w3.org/2000/svg" width="60" height="60" viewBox="0 0 60 60">
  <g id="Group_405" data-name="Group 405" transform="translate(35.156 22.266)">
    <g id="Group_404" data-name="Group 404">
      <path id="Path_3151" data-name="Path 3151" d="M301.172,190a1.172,1.172,0,1,0,1.172,1.172A1.172,1.172,0,0,0,301.172,190Z" transform="translate(-300 -190)"/>
    </g>
  </g>
  <g id="Group_407" data-name="Group 407">
    <g id="Group_406" data-name="Group 406">
      <path id="Path_3152" data-name="Path 3152" d="M58.627,52,42.984,36.356a23.227,23.227,0,0,0,3.891-12.919A23.438,23.438,0,1,0,23.438,46.875a23.228,23.228,0,0,0,12.919-3.89l4.324,4.324,0,0L52,58.627A4.687,4.687,0,1,0,58.627,52ZM35.805,40.515h0a21.115,21.115,0,1,1,4.71-4.71A21.2,21.2,0,0,1,35.805,40.515Zm2.459,1.062a23.517,23.517,0,0,0,3.314-3.314L44.9,41.588A28.445,28.445,0,0,1,41.588,44.9ZM56.969,56.969a2.342,2.342,0,0,1-3.314,0L43.25,46.564a30.794,30.794,0,0,0,3.314-3.314L56.97,53.656a2.342,2.342,0,0,1,0,3.313Z"/>
    </g>
  </g>
  <g id="Group_409" data-name="Group 409" transform="translate(4.688 4.688)">
    <g id="Group_408" data-name="Group 408">
      <path id="Path_3153" data-name="Path 3153" d="M58.75,40A18.75,18.75,0,1,0,77.5,58.75,18.771,18.771,0,0,0,58.75,40Zm0,35.156A16.406,16.406,0,1,1,75.156,58.75,16.425,16.425,0,0,1,58.75,75.156Z" transform="translate(-40 -40)"/>
    </g>
  </g>
  <g id="Group_411" data-name="Group 411" transform="translate(22.266 9.375)">
    <g id="Group_410" data-name="Group 410">
      <path id="Path_3154" data-name="Path 3154" d="M204.3,89.032A14.085,14.085,0,0,0,191.172,80a1.172,1.172,0,0,0,0,2.344,11.8,11.8,0,0,1,10.945,7.529,1.172,1.172,0,1,0,2.188-.841Z" transform="translate(-190 -80)"/>
    </g>
  </g>
</svg>
