<svg id="phone-call" xmlns="http://www.w3.org/2000/svg" width="20" height="20" viewBox="0 0 20 20">
  <g id="Group_1" data-name="Group 1">
    <path id="Path_1" data-name="Path 1" d="M18.421,13.168a11.416,11.416,0,0,1-3.588-.572,1.538,1.538,0,0,0-1.561.331L11,14.642A12.682,12.682,0,0,1,5.357,9L7.025,6.782a1.594,1.594,0,0,0,.391-1.611,11.447,11.447,0,0,1-.574-3.593A1.581,1.581,0,0,0,5.263,0H1.579A1.581,1.581,0,0,0,0,1.579,18.443,18.443,0,0,0,18.421,20,1.581,1.581,0,0,0,20,18.421V14.747A1.581,1.581,0,0,0,18.421,13.168Zm.526,5.253a.527.527,0,0,1-.526.526A17.388,17.388,0,0,1,1.053,1.579a.527.527,0,0,1,.526-.526H5.263a.527.527,0,0,1,.526.526,12.5,12.5,0,0,0,.623,3.916.583.583,0,0,1-.181.6L4.316,8.632a.526.526,0,0,0-.048.556,13.811,13.811,0,0,0,6.545,6.545.524.524,0,0,0,.557-.048l2.592-1.964a.528.528,0,0,1,.536-.125,12.488,12.488,0,0,0,3.924.626.527.527,0,0,1,.526.526v3.674Z"/>
  </g>
</svg>
