<svg xmlns="http://www.w3.org/2000/svg" width="44.463" height="60" viewBox="0 0 44.463 60">
  <g id="solution" transform="translate(-98.948 -13.771)">
    <g id="Group_413" data-name="Group 413" transform="translate(98.948 13.771)">
      <g id="Group_412" data-name="Group 412" transform="translate(0)">
        <path id="Path_3155" data-name="Path 3155" d="M143.411,110.368A22.231,22.231,0,1,0,109.044,129v7a12.135,12.135,0,0,0,24.27,0v-7A22.308,22.308,0,0,0,143.411,110.368ZM129.029,136a7.849,7.849,0,0,1-15.7,0V134.21h15.7ZM130.1,125.94a2.143,2.143,0,0,0-1.075,1.858v2.126h-5.707V118.844a6.954,6.954,0,0,0,4.8-6.6,2.143,2.143,0,0,0-4.286,0,2.657,2.657,0,1,1-5.314,0,2.143,2.143,0,1,0-4.286,0,6.954,6.954,0,0,0,4.8,6.6v11.081H113.33V127.8a2.143,2.143,0,0,0-1.075-1.858,17.946,17.946,0,1,1,17.849,0Z" transform="translate(-98.948 -88.136)"/>
      </g>
    </g>
  </g>
</svg>
