<svg xmlns="http://www.w3.org/2000/svg" width="84.339" height="95" viewBox="0 0 84.339 95">
  <g id="Group_355" data-name="Group 355" transform="translate(-2110 -1343.333)">
    <g id="Group_321" data-name="Group 321" transform="translate(2111.392 1344.725)">
      <g id="Group_320" data-name="Group 320" transform="translate(0 0)">
        <path id="Path_492" data-name="Path 492" d="M41.966,7.5a5.732,5.732,0,0,0-5.732,5.732V87.07A5.732,5.732,0,0,0,41.966,92.8H95.859a5.732,5.732,0,0,0,5.732-5.732V25.176a4.343,4.343,0,0,0-1.272-3.071L86.986,8.772A4.342,4.342,0,0,0,83.916,7.5Z" transform="translate(-36.234 -7.5)" fill="#fff"/>
        <path id="Path_494" data-name="Path 494" d="M317.512,23.822,304.179,10.489a4.338,4.338,0,0,0-1.272-.881v9.754a5.732,5.732,0,0,0,5.732,5.732h9.754A4.346,4.346,0,0,0,317.512,23.822Z" transform="translate(-253.427 -9.217)" fill="#28367d"/>
      </g>
    </g>
    <g id="Group_331" data-name="Group 331" transform="translate(2125.439 1395.389)">
      <g id="Group_330" data-name="Group 330" transform="translate(0 0)">
        <path id="Path_495" data-name="Path 495" d="M167.829,304.444,147.355,292.32a2.21,2.21,0,0,1-.774-3.028l1.047-1.768-4.142-2.451c-2.733-1.568-4.01-1.858-6.475-.905l-2.687,1.039a5.72,5.72,0,0,1-4.978-.414l-7.191-4.24-10.214,17.24,9.208,5.435a5.721,5.721,0,0,1,1.614,1.428l3.1,4.024a35.705,35.705,0,0,0,7.52,5.949l11.843,7.016a3.29,3.29,0,1,0,3.354-5.661l3.7,2.192a3.29,3.29,0,0,0,3.354-5.661l2.467,1.461a3.29,3.29,0,1,0,3.354-5.661l3.019,1.788a3.289,3.289,0,1,0,3.353-5.66Z" transform="translate(-111.941 -280.553)" fill="#c1caf9"/>
      </g>
      <path id="Path_496" data-name="Path 496" d="M274.126,390.973l-7.056-4.178a3.773,3.773,0,0,1-.943,1.7,3.921,3.921,0,0,1-4.813.591l-2.007-1.189a.177.177,0,0,0-.234.255,3.83,3.83,0,0,1-5.085,5.5l-1.577-.941a.152.152,0,0,0-.2.223,3.828,3.828,0,0,1,.21,4.326,3.9,3.9,0,0,1-5.3,1.231l-1.295-.767a.757.757,0,0,0-1.128.8,3.816,3.816,0,0,1-2.246,4.282l9,5.33a3.36,3.36,0,0,0,4.613-1.164,3.29,3.29,0,0,0-1.185-4.453l3.626,2.148a3.36,3.36,0,0,0,4.613-1.164,3.29,3.29,0,0,0-1.185-4.453l2.392,1.417a3.36,3.36,0,0,0,4.613-1.164,3.29,3.29,0,0,0-1.185-4.453l2.944,1.745a3.36,3.36,0,0,0,4.613-1.164,3.29,3.29,0,0,0-1.185-4.453Z" transform="translate(-218.238 -367.082)" fill="#c1caf9"/>
    </g>
    <g id="Group_332" data-name="Group 332" transform="translate(2154.731 1396.419)">
      <path id="Path_497" data-name="Path 497" d="M294.628,286.1l-5.523,3.21a5.72,5.72,0,0,1-4.978.414l-3.03-1.19a4.868,4.868,0,0,0-2.975-.188l-4.642,1.175a4.87,4.87,0,0,0-3.675,4.721v6.2a1.589,1.589,0,0,0,1.586,1.589,4.782,4.782,0,0,0,4.785-4.782v-.262l19.872,11.768a5.712,5.712,0,0,1,1.254-1.006l7.54-4.405Z" transform="translate(-269.805 -286.104)" fill="#c1caf9"/>
    </g>
    <g id="Group_335" data-name="Group 335" transform="translate(2130.859 1416.509)">
      <g id="Group_334" data-name="Group 334" transform="translate(0 0)">
        <path id="Path_499" data-name="Path 499" d="M148.975,399.582l-1.863,2.6a3.289,3.289,0,0,1-5.343-3.836l1.863-2.6a3.289,3.289,0,1,1,5.343,3.836Z" transform="translate(-141.151 -394.374)" fill="#c1caf9"/>
        <path id="Path_500" data-name="Path 500" d="M179.829,404.821l-3.919,5.459a3.289,3.289,0,1,1-5.343-3.836l3.919-5.459a3.289,3.289,0,0,1,5.343,3.836Z" transform="translate(-164.606 -398.641)" fill="#c1caf9"/>
        <path id="Path_501" data-name="Path 501" d="M208.627,425.5l-3.919,5.459a3.289,3.289,0,1,1-5.343-3.836l3.919-5.459a3.289,3.289,0,1,1,5.343,3.836Z" transform="translate(-188.061 -415.48)" fill="#c1caf9"/>
      </g>
      <path id="Path_502" data-name="Path 502" d="M239.523,459.243l-1.3,1.815a3.289,3.289,0,1,1-5.343-3.836l1.3-1.815a3.289,3.289,0,0,1,5.343,3.836Z" transform="translate(-215.354 -442.966)" fill="#c1caf9"/>
    </g>
    <path id="Path_503" data-name="Path 503" d="M112.053,262.38l-2.881-1.706a1.668,1.668,0,0,0-2.285.585l-11.843,19.99a1.668,1.668,0,0,0,.585,2.285l2.881,1.707a4.066,4.066,0,0,0,5.571-1.426l9.4-15.863A4.066,4.066,0,0,0,112.053,262.38Z" transform="translate(2027.45 1131.217)" fill="#28367d"/>
    <path id="Path_504" data-name="Path 504" d="M376.969,260.674l-2.881,1.707a4.066,4.066,0,0,0-1.426,5.571l9.4,15.863a4.066,4.066,0,0,0,5.571,1.426l2.881-1.706a1.668,1.668,0,0,0,.585-2.285l-11.843-19.99A1.668,1.668,0,0,0,376.969,260.674Z" transform="translate(1801.616 1131.217)" fill="#28367d"/>
    <path id="Path_505" data-name="Path 505" d="M129.125,137.8H83.631a1.4,1.4,0,0,0,0,2.8h45.494a1.4,1.4,0,1,0,0-2.8Z" transform="translate(2037.694 1231.099)"/>
    <path id="Path_506" data-name="Path 506" d="M83.631,88.352h22.747a1.4,1.4,0,1,0,0-2.8H83.631a1.4,1.4,0,0,0,0,2.8Z" transform="translate(2037.694 1273.651)"/>
    <path id="Path_507" data-name="Path 507" d="M129.125,184.1H83.631a1.4,1.4,0,0,0,0,2.8h45.494a1.4,1.4,0,1,0,0-2.8Z" transform="translate(2037.694 1193.396)"/>
    <path id="Path_508" data-name="Path 508" d="M50.418,85.29H35.859a4.339,4.339,0,0,1-4.334-4.334V7.129a4.339,4.339,0,0,1,4.334-4.334H77.8a2.99,2.99,0,0,1,.4.03v8.716a7.137,7.137,0,0,0,7.129,7.129h8.716a2.966,2.966,0,0,1,.03.4v23.8a1.4,1.4,0,1,0,2.8,0v-23.8a5.7,5.7,0,0,0-1.681-4.058L81.861,1.681A5.7,5.7,0,0,0,77.8,0H35.859A7.137,7.137,0,0,0,28.73,7.129V80.956a7.137,7.137,0,0,0,7.129,7.129H50.418a1.4,1.4,0,1,0,0-2.795ZM92.1,15.875H85.333A4.339,4.339,0,0,1,81,11.541V4.772Z" transform="translate(2081.27 1343.333)"/>
    <path id="Path_509" data-name="Path 509" d="M160.339,274.393,148.5,254.406a3.063,3.063,0,0,0-4.2-1.075l-2.88,1.707a5.472,5.472,0,0,0-2.413,6.38,4.284,4.284,0,0,1-3.014-.033c-2.274-.715-4-2.155-6.858-1.433-4.848,1.234-4.7,1.173-5.14,1.323-2.839-1.616-4.545-2.1-7.559-.931l-2.686,1.039a4.3,4.3,0,0,1-3.763-.314l-.733-.432a5.46,5.46,0,0,0-2.606-5.6h0l-2.88-1.706a3.069,3.069,0,0,0-4.2,1.075L87.725,274.394a3.063,3.063,0,0,0,1.075,4.2l2.88,1.706a5.429,5.429,0,0,0,2.776.762,5.5,5.5,0,0,0,2.985-.882l.6.354L96.773,282.3a4.682,4.682,0,0,0,4.533,7.358,4.679,4.679,0,0,0,5.343,3.838,4.683,4.683,0,0,0,6.464,3.515,4.681,4.681,0,0,0,7.961,1.316l3.368,1.995a4.692,4.692,0,0,0,7.045-3.473l.008,0a4.686,4.686,0,0,0,7.063-3.686,4.687,4.687,0,0,0,5.807-4.053,4.689,4.689,0,0,0,5.3-7.382l1.856-1.085a5.452,5.452,0,0,0,4.864-.348l2.88-1.706a3.063,3.063,0,0,0,1.075-4.2Zm-67.234,3.5-2.88-1.706a.27.27,0,0,1-.095-.37l11.842-19.988a.27.27,0,0,1,.37-.095l2.88,1.706a2.668,2.668,0,0,1,.936,3.656l-9.4,15.861A2.671,2.671,0,0,1,93.1,277.894Zm6.373,8.673a1.89,1.89,0,0,1-.433-2.639l1.863-2.595a1.891,1.891,0,0,1,3.072,2.205l-1.863,2.595A1.893,1.893,0,0,1,99.477,286.567Zm5.343,3.836a1.893,1.893,0,0,1-.433-2.639l1.863-2.595h0l2.056-2.863a1.878,1.878,0,0,1,1.23-.763,1.9,1.9,0,0,1,.31-.025,1.891,1.891,0,0,1,1.532,2.994l-3.919,5.458A1.89,1.89,0,0,1,104.82,290.4Zm5.343,3.835a1.893,1.893,0,0,1-.434-2.638h0l3.919-5.458a1.891,1.891,0,1,1,3.072,2.205l-1.741,2.425h0l-2.177,3.033A1.892,1.892,0,0,1,110.162,294.238Zm6.217,2.618a1.893,1.893,0,0,1-.435-2.637l1.3-1.817a1.891,1.891,0,0,1,3.072,2.206l-1.3,1.815A1.893,1.893,0,0,1,116.379,296.856ZM147.7,285.714a1.894,1.894,0,0,1-2.592.664l-12.37-7.329a1.4,1.4,0,1,0-1.425,2.4l9.352,5.541h0a1.892,1.892,0,0,1-1.929,3.256l-9.357-5.544a1.4,1.4,0,0,0-1.425,2.4l6.891,4.082h0a1.892,1.892,0,0,1-1.93,3.255l-3.7-2.191h0l-2.7-1.6a1.4,1.4,0,0,0-1.425,2.4l2.7,1.6h0a1.892,1.892,0,1,1-1.929,3.255l-3.149-1.865a4.683,4.683,0,0,0-3.147-7.164,4.682,4.682,0,0,0-5.113-6.269,4.685,4.685,0,0,0-7.949-2.5,4.681,4.681,0,0,0-6.515-1.672l-.64-.378,8.789-14.836.418.247a7.076,7.076,0,0,0,6.193.515l2.686-1.039a4.124,4.124,0,0,1,3.906.085,6.256,6.256,0,0,0-1.586,4.167v6.2a2.989,2.989,0,0,0,2.982,2.987h0A6.19,6.19,0,0,0,128.6,272.2l18.441,10.921a1.891,1.891,0,0,1,.663,2.591Zm10.136-9.526-2.88,1.706a2.672,2.672,0,0,1-3.656-.936l-4.4-7.434a1.4,1.4,0,0,0-2.4,1.424l4.4,7.434c.083.14.173.273.266.4l-1.224.715a7.081,7.081,0,0,0-.713.483l-18.986-11.243a1.4,1.4,0,0,0-2.109,1.2,3.569,3.569,0,0,1-.992,2.656,3.362,3.362,0,0,1-2.392.99h0a.191.191,0,0,1-.189-.192v-6.2a3.477,3.477,0,0,1,2.62-3.366l4.642-1.175c1.684-.426,2.636.474,5.158,1.327a7.065,7.065,0,0,0,5.344-.086l.844,1.424a1.4,1.4,0,1,0,2.4-1.424l-1.661-2.8a2.667,2.667,0,0,1,.936-3.656l2.88-1.706a.27.27,0,0,1,.37.095l11.841,19.987a.269.269,0,0,1-.094.37Z" transform="translate(2033.571 1137.357)"/>
  </g>
</svg>
